<svg width="134" height="134" viewBox="0 0 134 134" fill="none" xmlns="http://www.w3.org/2000/svg">
<path d="M67 0C30.0563 0 0 30.0563 0 67C0 103.944 30.0563 134 67 134C103.944 134 134 103.944 134 67C133.998 30.0563 103.944 0 67 0ZM67 123.201C36.0103 123.201 10.799 97.9897 10.799 66.9976C10.799 36.0079 36.0103 10.7966 67 10.7966C97.9897 10.7966 123.201 36.0103 123.201 67C123.201 97.9897 97.9897 123.201 67 123.201Z" fill="#00A652"/>
<path d="M88.3566 45.6352L57.083 76.9112L45.6393 65.4675C43.5319 63.3577 40.1135 63.3577 38.0062 65.4675C35.8964 67.5748 35.8964 70.9932 38.0062 73.1006L53.2676 88.3621C54.3213 89.4158 55.7046 89.945 57.0854 89.945C58.4663 89.945 59.8471 89.4182 60.9008 88.3621L95.9921 53.2708C98.0995 51.161 98.0995 47.745 95.9921 45.6352C93.8824 43.5278 90.4663 43.5278 88.3566 45.6352Z" fill="#00A652"/>
</svg>
