<svg width="71" height="71" viewBox="0 0 71 71" fill="none" xmlns="http://www.w3.org/2000/svg">
<path d="M56.7999 43.7832C56.4449 43.7832 55.9716 43.7832 55.6166 43.7832C62.2432 44.3749 67.4499 49.9366 67.4499 56.7999C67.4499 63.6632 62.2432 69.1066 55.6166 69.8166C55.9716 69.8166 56.4449 69.8166 56.7999 69.8166C64.0182 69.8166 69.8166 64.0183 69.8166 56.7999C69.8166 49.5815 64.0182 43.7832 56.7999 43.7832Z" fill="#FFCC00"/>
<path d="M40.2332 56.8V14.2H5.91663V69.8167H53.2499C46.1499 69.8167 40.2332 63.9 40.2332 56.8Z" fill="#FFCC00"/>
<path d="M2.3667 69.8167H5.9167V14.2H2.3667V69.8167Z" fill="white"/>
<path d="M49.7 69.8168C45.6767 69.8168 40.2333 63.9001 40.2333 56.8001V14.2001C40.2333 6.98178 45.6766 1.18335 49.7 1.18335C56.8 1.18335 62.7167 6.98164 62.7167 14.2001V56.8001C62.7167 63.9001 56.8 69.8168 49.7 69.8168Z" fill="#FFCC00"/>
<path d="M53.25 1.18335C52.6583 1.18335 52.0667 1.18335 51.475 1.30164C57.7467 2.24835 62.7167 7.69164 62.7167 14.1999V56.7999C62.7167 63.3082 57.7467 68.7516 51.475 69.6982C52.0667 69.8165 52.6583 69.8165 53.25 69.8165C60.35 69.8165 66.2667 63.8998 66.2667 56.7998V14.2001C66.2667 6.98178 60.35 1.18335 53.25 1.18335Z" fill="#EC9704"/>
<path d="M63.9 56.7999C63.9 64.0182 58.1017 69.8166 50.8833 69.8166C43.6649 69.8166 40.2333 64.0183 40.2333 56.7999C40.2333 49.5815 43.665 43.7832 50.8833 43.7832C58.1016 43.7832 63.9 49.5816 63.9 56.7999Z" fill="#FECC00"/>
<path d="M53.2499 43.7832C52.8949 43.7832 52.4217 43.7832 52.0667 43.7832C58.6932 44.3749 63.8999 49.9366 63.8999 56.7999C63.8999 63.6632 58.6932 69.1066 52.0667 69.8166C52.4217 69.8166 52.8949 69.8166 53.2499 69.8166C60.4682 69.8166 66.2666 64.0183 66.2666 56.7999C66.2666 49.5815 60.4682 43.7832 53.2499 43.7832Z" fill="#EC9704"/>
<path d="M56.7999 1.18335C56.2082 1.18335 55.6166 1.18335 55.0249 1.30164C61.2966 2.24835 66.2666 7.69164 66.2666 14.1999V56.7999C66.2666 63.3082 61.2966 68.7516 55.0249 69.6982C55.6166 69.8165 56.2082 69.8165 56.7999 69.8165C63.8999 69.8165 69.8166 63.8998 69.8166 56.7998V14.2001C69.8166 6.98178 63.8999 1.18335 56.7999 1.18335Z" fill="#FFCC00"/>
<path d="M60.3499 56.8C60.3499 60.705 57.1549 63.9 53.2499 63.9C49.3449 63.9 46.1499 60.705 46.1499 56.8C46.1499 52.895 49.3449 49.7 53.2499 49.7C57.1549 49.7 60.3499 52.895 60.3499 56.8Z" fill="#FFCC00"/>
<path d="M53.2499 71C45.4399 71 39.0499 64.61 39.0499 56.8V14.2C39.0499 6.39 45.4399 0 53.2499 0C61.0599 0 67.4499 6.39 67.4499 14.2V56.8C67.4499 64.61 61.0599 71 53.2499 71ZM53.2499 2.36671C46.7416 2.36671 41.4166 7.69171 41.4166 14.2V56.8C41.4166 63.3083 46.7416 68.6333 53.2499 68.6333C59.7582 68.6333 65.0832 63.3083 65.0832 56.8V14.2C65.0832 7.69171 59.7582 2.36671 53.2499 2.36671Z" fill="black"/>
<path d="M53.2499 70.9999H1.18323V13.0166H41.4165V56.7999C41.4165 63.3082 46.7415 68.6332 53.2498 68.6332V70.9999H53.2499ZM3.54994 68.6332H45.4399C41.6532 66.0299 39.0499 61.7699 39.0499 56.7999V15.3832H3.54994V68.6332Z" fill="black"/>
<path d="M53.2499 71.0001C45.4399 71.0001 39.0499 64.6101 39.0499 56.8001C39.0499 48.9901 45.4399 42.6001 53.2499 42.6001C61.0599 42.6001 67.4499 48.9901 67.4499 56.8001C67.4499 64.6101 61.0599 71.0001 53.2499 71.0001ZM53.2499 44.9668C46.7416 44.9668 41.4166 50.2918 41.4166 56.8001C41.4166 63.3084 46.7416 68.6334 53.2499 68.6334C59.7582 68.6334 65.0832 63.3084 65.0832 56.8001C65.0832 50.2918 59.7582 44.9668 53.2499 44.9668Z" fill="black"/>
<path d="M53.25 65.0832C48.635 65.0832 44.9667 61.4149 44.9667 56.7999C44.9667 52.1849 48.635 48.5166 53.25 48.5166C57.865 48.5166 61.5332 52.1849 61.5332 56.7999C61.5332 61.4149 57.865 65.0832 53.25 65.0832ZM53.25 50.8832C49.9367 50.8832 47.3333 53.4865 47.3333 56.7999C47.3333 60.1132 49.9365 62.7166 53.25 62.7166C56.5632 62.7166 59.1667 60.1133 59.1667 56.7999C59.1667 53.4866 56.5632 50.8832 53.25 50.8832Z" fill="black"/>
<path d="M2.95456 31.7944L31.3716 15.2173L30.179 13.1729L1.76198 29.7501L2.95456 31.7944Z" fill="black"/>
<path d="M2.98545 63.7361L40.8237 41.2471L39.6146 39.2128L1.77637 61.7018L2.98545 63.7361Z" fill="black"/>
<path d="M39.9587 41.3818L40.5326 39.0859L2.65207 29.6168L2.07818 31.9126L39.9587 41.3818Z" fill="black"/>
<path d="M13.5963 34.1679L40.7837 17.6123L39.5528 15.5909L12.3654 32.1465L13.5963 34.1679Z" fill="black"/>
<path d="M23.1405 36.4858L40.8953 25.8296L39.6774 23.8005L21.9226 34.4567L23.1405 36.4858Z" fill="black"/>
<path d="M32.5693 38.8762L40.8905 34.1213L39.7164 32.0667L31.3952 36.8215L32.5693 38.8762Z" fill="black"/>
<path d="M30.4352 47.286L31.0979 45.0139L2.69795 36.7306L2.03527 39.0026L30.4352 47.286Z" fill="black"/>
<path d="M20.966 52.0159L21.672 49.7568L2.69601 43.8265L1.99002 46.0855L20.966 52.0159Z" fill="black"/>
<path d="M11.3349 57.8782L12.1658 55.6624L2.74846 52.131L1.91755 54.3468L11.3349 57.8782Z" fill="black"/>
<path d="M4.16204 70.8205L40.8069 49.5623L39.6193 47.5151L2.97443 68.7733L4.16204 70.8205Z" fill="black"/>
<path d="M18.3208 70.8533L40.8502 57.8079L39.6643 55.7597L17.1348 68.8051L18.3208 70.8533Z" fill="black"/>
<path d="M3.01917 24.6531L18.439 15.1663L17.1989 13.1506L1.77909 22.6375L3.01917 24.6531Z" fill="black"/>
</svg>
