<svg width="88" height="73" viewBox="0 0 88 73" fill="none" xmlns="http://www.w3.org/2000/svg">
<circle cx="30.5" cy="30.5" r="30.5" fill="#FFCC00"/>
<g clip-path="url(#clip0_287_955)">
<path d="M45.946 52.1838L45.946 52.1838C46.2806 52.4466 46.4098 52.8043 46.4654 53.043C46.5236 53.2925 46.5333 53.55 46.5288 53.7707C46.5203 54.1903 46.4525 54.6771 46.3953 55.0884L46.3876 55.1443C46.3637 55.3161 46.342 55.4751 46.3241 55.6211C46.4454 55.5377 46.5764 55.4447 46.7178 55.3438C46.7373 55.3299 46.7571 55.3158 46.777 55.3015C47.1111 55.0628 47.5041 54.782 47.864 54.5825C48.0558 54.4761 48.2868 54.3648 48.5328 54.2996C48.7668 54.2375 49.1457 54.1822 49.5366 54.358L45.946 52.1838ZM45.946 52.1838C45.6779 51.9733 45.3823 51.9085 45.1637 51.8916C44.9812 51.8775 44.8051 51.8929 44.6508 51.9177L52.4742 44.0943C55.2301 46.1629 59.1573 45.9441 61.6641 43.4373L61.6642 43.4373C64.171 40.9303 64.3898 37.0032 62.3212 34.2473L70.1447 26.4239C70.12 26.5782 70.1046 26.7544 70.1186 26.937C70.1355 27.1556 70.2003 27.4511 70.4109 27.7192C70.6737 28.0538 71.0313 28.183 71.2701 28.2387C71.5195 28.2968 71.777 28.3065 71.9977 28.302C72.4173 28.2935 72.9041 28.2258 73.3155 28.1686L73.3713 28.1608C73.5431 28.1369 73.7021 28.1153 73.8482 28.0973C73.7647 28.2187 73.6717 28.3497 73.5708 28.491C73.5569 28.5106 73.5427 28.5303 73.5285 28.5503C73.2898 28.8844 73.009 29.2773 72.8095 29.6372C72.7031 29.8291 72.5918 30.06 72.5265 30.306C72.4645 30.54 72.4091 30.9189 72.5849 31.3097L72.5849 31.3098C72.7598 31.6986 73.0771 31.9097 73.2948 32.0204C73.5227 32.1362 73.77 32.2072 73.9849 32.2557C74.3919 32.3475 74.8782 32.3987 75.2899 32.4421C75.3104 32.4442 75.3306 32.4464 75.3507 32.4485C75.5237 32.4668 75.6836 32.4841 75.83 32.502M45.946 52.1838L75.83 32.502M75.83 32.502C75.7194 32.5999 75.5974 32.705 75.4651 32.8183C75.4479 32.833 75.4305 32.8479 75.4129 32.8629C75.1 33.1306 74.7313 33.446 74.45 33.7491C74.3006 33.9102 74.1371 34.1081 74.0148 34.3317C73.8983 34.5448 73.7546 34.8991 73.8313 35.3201M75.83 32.502L57.7437 55.8569C57.7437 55.8569 57.7436 55.8569 57.7436 55.8569C58.1705 55.8312 58.5051 56.016 58.7029 56.1574C58.9105 56.3056 59.0875 56.4919 59.2295 56.6596C59.4973 56.9758 59.7666 57.3805 59.995 57.7238C60.0074 57.7426 60.0198 57.7611 60.032 57.7795C60.1288 57.9249 60.2186 58.059 60.3027 58.1808C60.3383 58.0373 60.3749 57.8802 60.4141 57.7102C60.4188 57.69 60.4235 57.6696 60.4282 57.649C60.5209 57.2461 60.6303 56.7704 60.7702 56.3781C60.8442 56.1708 60.9444 55.9339 61.0867 55.7217C61.2226 55.5192 61.4705 55.2293 61.878 55.1027L61.878 55.1027C62.2869 54.9756 62.6562 55.076 62.8813 55.1659C63.1179 55.2604 63.3339 55.3989 63.5117 55.5277C63.8458 55.7699 64.2027 56.0971 64.5058 56.3751C64.5233 56.3911 64.5406 56.407 64.5578 56.4227C64.6859 56.5401 64.8047 56.6483 64.915 56.7459C64.9149 56.5988 64.9127 56.4384 64.9099 56.2649L64.9089 56.2059C64.902 55.7914 64.8939 55.3014 64.9359 54.8851C64.958 54.6658 64.9987 54.4115 65.0863 54.1711C65.1701 53.9413 65.3414 53.6013 65.7057 53.3808C66.0727 53.1586 66.4559 53.1681 66.6952 53.2014C66.9471 53.2365 67.1897 53.3191 67.3927 53.4014C67.773 53.5556 68.196 53.7861 68.5558 53.9822C68.5781 53.9944 68.6002 54.0064 68.622 54.0182C68.7751 54.1016 68.9169 54.1782 69.0478 54.2465C69.0123 54.1031 68.9715 53.9472 68.9269 53.7786L68.9134 53.7273C68.8069 53.3248 68.6807 52.848 68.6219 52.4309C68.5911 52.2121 68.57 51.955 68.5981 51.7C68.6251 51.4557 68.7112 51.0855 69.0118 50.785C69.3124 50.4844 69.6826 50.3983 69.9268 50.3714C70.1818 50.3433 70.4389 50.3644 70.6576 50.3952C71.0748 50.454 71.5515 50.5802 71.954 50.6867L72.0053 50.7003C72.1739 50.7448 72.3298 50.7856 72.4732 50.8212C72.4049 50.6902 72.3283 50.5484 72.2449 50.3952C72.2331 50.3735 72.2211 50.3514 72.2089 50.3291C72.0128 49.9692 71.7823 49.5463 71.6281 49.166C71.5458 48.963 71.4631 48.7204 71.4281 48.4685C71.3947 48.2292 71.3852 47.8459 71.6076 47.4788M50.7286 57.6029C50.8265 57.4924 50.9316 57.3704 51.0449 57.2381C51.0596 57.2209 51.0744 57.2036 51.0894 57.1861C51.3571 56.8731 51.6725 56.5044 51.9757 56.223C52.1368 56.0736 52.3347 55.9101 52.5584 55.7878C52.7714 55.6713 53.1257 55.5276 53.5466 55.6044C53.5467 55.6044 53.5468 55.6044 53.5469 55.6044L53.3673 56.5882L50.7286 57.6029ZM50.7286 57.6029C50.7108 57.4566 50.6935 57.2967 50.6752 57.1238C50.6731 57.1037 50.6709 57.0835 50.6688 57.063C50.6254 56.6514 50.5742 56.165 50.4824 55.758C50.434 55.5431 50.363 55.2957 50.2471 55.0678C50.1364 54.8501 49.9253 54.5329 49.5366 54.358L50.7286 57.6029ZM73.8313 35.3201C73.8313 35.3201 73.8313 35.3201 73.8313 35.32L74.8151 35.1407L73.8313 35.3201ZM73.8313 35.3201C73.9079 35.7403 74.1663 36.0213 74.3509 36.1803C74.5444 36.347 74.7674 36.4748 74.9643 36.573C75.3362 36.7586 75.7946 36.9242 76.1831 37.0646C76.2034 37.0719 76.2236 37.0792 76.2435 37.0864C76.408 37.1459 76.5598 37.2012 76.6983 37.254M76.6983 37.254C76.5671 37.3229 76.4229 37.3962 76.2667 37.475C76.2474 37.4847 76.2279 37.4945 76.2082 37.5045C75.8397 37.6902 75.4051 37.9093 75.0585 38.1377C74.8749 38.2587 74.6688 38.4122 74.4967 38.6007C74.3326 38.7805 74.1094 39.0904 74.0837 39.5171C74.058 39.944 74.2429 40.2785 74.3842 40.4764C74.5325 40.684 74.7187 40.8609 74.8864 41.003C75.2027 41.2708 75.6073 41.54 75.9506 41.7684C75.9694 41.7809 75.9879 41.7932 76.0063 41.8054C76.1517 41.9022 76.2858 41.9921 76.4076 42.0762M76.6983 37.254C76.9293 37.3419 77.123 37.4224 77.2758 37.5021C77.3977 37.5658 77.4363 37.6004 77.4329 37.5971C77.4322 37.5965 77.2967 37.4696 77.2816 37.2185L78.2798 37.1584M76.6983 37.254C76.9169 37.139 77.0995 37.0358 77.2415 36.9384C77.3416 36.8697 77.3799 36.8312 77.3855 36.8256C77.3862 36.8249 77.3864 36.8247 77.3861 36.8251L77.386 36.8252C77.3842 36.8274 77.2666 36.9691 77.2816 37.2183L78.2798 37.1584M76.4076 42.0762C76.2641 42.1118 76.107 42.1484 75.937 42.1876C75.9167 42.1922 75.8963 42.1969 75.8756 42.2017C75.4727 42.2944 74.9971 42.4038 74.6049 42.5436C74.3976 42.6176 74.1608 42.7177 73.9486 42.8601C73.7461 42.9959 73.4562 43.2437 73.3295 43.6512M76.4076 42.0762C76.6111 42.2167 76.7801 42.3412 76.9095 42.4551C77.0005 42.5353 77.034 42.578 77.0388 42.5843C77.0395 42.5851 77.0396 42.5853 77.0393 42.5848C77.0387 42.5839 76.938 42.429 76.983 42.1826L77.9667 42.3619M76.4076 42.0762C76.648 42.0166 76.8504 41.9599 77.0119 41.8991C77.1253 41.8564 77.1718 41.8283 77.1786 41.8242C77.1795 41.8236 77.1797 41.8235 77.1793 41.8238C77.1786 41.8244 77.0283 41.9343 76.983 42.1824L77.9667 42.3619M73.3295 43.6512C73.2024 44.0602 73.3027 44.4295 73.3927 44.6546C73.4871 44.8912 73.6256 45.1072 73.7545 45.285C73.9967 45.6191 74.3239 45.9759 74.6018 46.2791C74.6179 46.2966 74.6338 46.314 74.6495 46.3311C74.7669 46.4592 74.8751 46.5781 74.9727 46.6884M73.3295 43.6512C73.3295 43.6513 73.3295 43.6513 73.3295 43.6513L74.2845 43.9481M73.3295 43.6512L74.2845 43.9481M74.9727 46.6884C74.8256 46.6884 74.6651 46.6861 74.4916 46.6833C74.4721 46.683 74.4524 46.6826 74.4326 46.6823C74.0181 46.6754 73.5281 46.6673 73.1119 46.7093C72.8925 46.7314 72.6383 46.772 72.3979 46.8596C72.1681 46.9434 71.8282 47.1146 71.6076 47.4788M74.9727 46.6884C75.1372 46.8742 75.2718 47.0359 75.3701 47.1778C75.439 47.2772 75.4612 47.3267 75.4644 47.3339C75.4649 47.3349 75.4649 47.3351 75.4648 47.3346L75.4648 47.3345C75.4637 47.3315 75.4049 47.1583 75.5066 46.9321C75.6108 46.7006 75.7845 46.6298 75.7853 46.6295C75.7898 46.6276 75.7415 46.6462 75.6048 46.6621C75.4327 46.6823 75.2217 46.6885 74.9727 46.6884ZM71.6076 47.4788C71.6076 47.4788 71.6075 47.4789 71.6075 47.4789L72.4629 47.9969L71.6076 47.4788ZM74.2845 43.9481C74.4028 43.5671 75.2646 43.3686 76.1252 43.1704C77.01 42.9667 77.8935 42.7632 77.9667 42.3619M74.2845 43.9481L78.2798 37.1584M77.9667 42.3619C78.0403 41.9582 77.2824 41.4537 76.5251 40.9495C75.7913 40.461 75.0581 39.9729 75.0819 39.5771C75.1057 39.1805 75.8932 38.7834 76.6807 38.3862C77.4925 37.9767 78.3043 37.5673 78.2798 37.1584" stroke="black" stroke-width="2"/>
<path d="M32.8074 42.1539L33.2274 41.7339L33.0595 41.1641C30.8788 33.767 32.7913 25.1754 38.9329 18.5932L38.9329 18.5932C43.1452 14.0787 48.867 11.8748 54.6568 11.8748C59.9144 11.8748 65.211 13.693 69.4496 17.2346L70.1513 17.8209L70.7979 17.1744L76.0051 11.9673L77.6157 13.5778L46.6146 44.5789L46.5631 44.6304L46.5196 44.6888C46.3529 44.9126 46.1695 45.1264 45.9679 45.3279L36.1226 55.1732L35.8297 55.4661V55.8804V60.7522H26V51.4423L26.0018 51.286C26.0187 49.8287 26.5811 48.3803 27.6915 47.2699L32.8074 42.1539ZM57.2164 30.9511L57.8173 31.1733L58.2703 30.7202L61.0252 27.9652C61.8577 27.1327 61.7947 25.7557 60.8737 25.0086C56.3852 21.3677 49.7813 21.635 45.6047 25.8116C41.4281 29.9881 41.1608 36.5922 44.8017 41.0809L44.8018 41.0809C45.5489 42.0019 46.9258 42.0647 47.7583 41.2322L50.5132 38.4773L50.9662 38.0243L50.7441 37.4234C50.0973 35.674 50.4912 33.5936 51.9389 32.146C53.3866 30.6983 55.467 30.3043 57.2164 30.9511ZM27.6547 51.3859C27.6547 53.1036 29.0472 54.4963 30.7651 54.4963C32.4829 54.4963 33.8755 53.1037 33.8755 51.3859C33.8755 49.6681 32.4829 48.2756 30.7651 48.2756C29.0473 48.2756 27.6547 49.6681 27.6547 51.3859Z" stroke="black" stroke-width="2"/>
<path d="M26 64.8087V64.4274H36.8297H37.6672H38.5048H87V67.2324V69.9149V71.1302H83.8931V70.1619V68.9536L82.7061 69.1795C77.1743 70.2326 67.5258 70.9396 56.5 70.9396C45.4742 70.9396 35.8257 70.2326 30.2939 69.1795L29.1069 68.9536V70.1619V71.1302H26V69.9149V67.2324V66.4837V65.6462V64.8087Z" stroke="black" stroke-width="2"/>
</g>
<defs>
<clipPath id="clip0_287_955">
<rect width="63" height="63" fill="white" transform="translate(25 10)"/>
</clipPath>
</defs>
</svg>
