<svg width="73" height="65" viewBox="0 0 73 65" fill="none" xmlns="http://www.w3.org/2000/svg">
<path d="M5 36L7.5 23H69.5L72.2173 34.7751C72.3619 35.4018 71.886 36 71.243 36H5Z" fill="#FFE100"/>
<path d="M9 37H69V62C69 62.5523 68.5523 63 68 63H9V37Z" fill="#FFE100"/>
<rect x="60" y="37" width="6" height="26" fill="#FFA800"/>
<path d="M62.5 35.5L60.5 23H66.691L69.5 35.5H62.5Z" fill="#FFA800"/>
<path d="M20 15.5L11.5 21.5H66L56 15.5H20Z" fill="#FFE100"/>
<path d="M56 15L66 21.5H53V15H56Z" fill="#FFA800"/>
<rect x="25" y="15" width="28" height="3" fill="#63D3FD"/>
<rect x="26" y="18" width="27" height="3" fill="#3DB9F9"/>
<path d="M68.2026 22.8832C68.2748 22.7747 68.3342 22.6547 68.3717 22.5243C68.5279 21.9666 68.2955 21.3741 67.8036 21.0733L56.801 14.3359V7.97289C56.801 7.25901 56.224 6.68196 55.5101 6.68196H50.3464V1.51823C50.3464 0.804342 49.7693 0.227295 49.0554 0.227295H27.1096C26.3957 0.227295 25.8187 0.804342 25.8187 1.51823V6.68196H24.5277C23.8138 6.68196 23.2368 7.25901 23.2368 7.97289V13.1366H16.5239C16.2851 13.1366 16.0527 13.2025 15.8488 13.3277L3.19764 21.0733C2.70451 21.3741 2.47343 21.9666 2.62963 22.5243C2.66707 22.6547 2.72645 22.7747 2.79875 22.8832L0.027114 36.1088C-0.0516329 36.4896 0.0438961 36.8859 0.287882 37.188C0.53445 37.4888 0.902366 37.6643 1.29094 37.6643H3.8728V63.483C3.8728 64.1969 4.44985 64.7739 5.16373 64.7739H65.8376C66.5515 64.7739 67.1285 64.1969 67.1285 63.483V37.6643H69.7104C70.0989 37.6643 70.4669 37.4888 70.7121 37.188C70.9561 36.8859 71.0529 36.4896 70.9729 36.1088L68.2026 22.8832ZM51.6373 17.0094H27.1096H25.8187V15.7185H51.6373V17.0094ZM28.4005 19.5913H51.6373V20.8822H28.4005V19.5913ZM54.2192 18.3004V15.783L62.547 20.8822H54.2192V18.3004ZM28.4005 2.80916H47.7645V6.68196H28.4005V2.80916ZM25.8187 9.26382H27.1096H49.0554H54.2192V13.1366H52.9282H25.8187V9.26382ZM16.888 15.7185H23.2368V18.3004C23.2368 19.0142 23.8138 19.5913 24.5277 19.5913H25.8187V20.8822H8.45303L16.888 15.7185ZM64.5466 62.1921H6.45467V37.6643H64.5466V62.1921ZM65.8376 35.0825H5.16373H2.88007L5.31477 23.4641H27.1096H52.9282H65.6865L68.1212 35.0825H65.8376Z" fill="black"/>
<path d="M52.9283 51.7341V54.4464H51.6373V57.0282H56.8011V54.4464H55.5101V51.7341C58.4522 51.1338 60.6739 48.5261 60.6739 45.4098C60.6739 44.6959 60.0968 44.1189 59.3829 44.1189H49.0555C48.3416 44.1189 47.7645 44.6959 47.7645 45.4098C47.7645 48.5261 49.9849 51.1338 52.9283 51.7341ZM57.8712 46.7008C57.3381 48.2034 55.9026 49.2826 54.2192 49.2826C52.5358 49.2826 51.1003 48.2034 50.5671 46.7008H57.8712Z" fill="black"/>
<rect x="25" y="9" width="30" height="5" fill="#00A652"/>
<rect x="27" y="2" width="21" height="5" fill="#00DA6C"/>
</svg>
