<svg width="71" height="71" viewBox="0 0 71 71" fill="none" xmlns="http://www.w3.org/2000/svg">
<g clip-path="url(#clip0_111_2996)">
<path d="M56.2098 30.2141L26.4248 58.6509C26.5474 60.1217 26.3022 61.5926 25.8119 62.941L58.1709 32.2979L56.2098 30.2141Z" fill="#FFE100"/>
<path d="M67.3638 8.15089C64.7898 5.20918 61.3578 3.73833 57.8032 3.61572C57.8032 3.61572 57.6806 3.73833 57.8032 3.73833C59.5193 4.22861 61.1127 5.33179 62.7061 6.80264C68.0992 11.9507 68.0992 20.6533 62.8287 25.9239L57.4355 31.317C57.4355 31.317 57.4355 31.317 57.4355 31.4396L59.3967 33.4007C59.3967 33.4007 59.3967 33.4007 59.5193 33.4007L66.3833 26.5368C71.2861 21.5113 71.899 13.4215 67.3638 8.15089Z" fill="#FFE100"/>
<path d="M52.2875 26.0466L52.5327 26.4143L52.2875 26.0466Z" fill="#FFE100"/>
<path d="M24.0958 52.1545C26.057 56.4446 25.3216 61.8378 21.767 65.3924C17.2319 69.9275 9.75499 69.9275 5.21983 65.3924C4.85215 64.9021 4.48433 64.6569 4.23926 64.2892C4.85215 65.515 5.58751 66.618 6.56807 67.5986C11.1032 72.1337 18.5801 72.1337 23.1153 67.5986C27.4052 63.3086 27.6504 56.6897 24.0958 52.1545Z" fill="#FFE100"/>
<path d="M50.8166 23.35L55.1067 18.202C56.3324 18.3246 57.313 18.0794 58.171 17.2214C59.887 15.5053 59.887 12.6862 58.171 10.9702C56.4549 9.25412 53.6358 9.25412 51.9197 10.9702C50.9392 11.9507 50.8166 12.9313 50.9392 14.0345L45.7911 19.1825L38.5593 11.9507L45.7911 4.71895C50.9392 -0.429104 56.5775 -0.429104 61.603 4.71895C66.751 9.86701 66.751 18.2018 61.603 23.3499L54.3712 30.5817L50.8166 23.35Z" fill="#FFE100"/>
<path d="M24.5861 60.4894L56.9451 29.8463L51.7971 24.6982L23.8506 51.174C25.3216 54.1157 25.6893 57.4251 24.5861 60.4894Z" fill="#FECC00"/>
<path d="M25.0763 56.3221L55.8419 26.9047L52.0421 23.2275L23.9731 49.7032C25.5666 52.6449 26.0569 53.2578 25.0763 56.3221Z" fill="#FECC00"/>
<path d="M54.8614 27.7627L25.0764 56.1995C25.199 57.6703 24.9538 59.1412 24.4635 60.4896L56.8225 29.8464L54.8614 27.7627Z" fill="#FFA800"/>
<path d="M18.9477 47.7419L34.5144 24.4531C35.4949 22.9823 36.1078 20.7759 34.8821 19.5503V18.6923C33.2886 17.0989 33.2886 17.3441 31.9403 19.1826L13.0643 45.6583C16.1286 44.6777 16.1286 46.1485 18.9477 47.7419Z" fill="#FECC00"/>
<path d="M35.3726 19.1826L35.4952 19.3052C35.4952 19.1826 35.4952 19.1826 35.3726 19.1826Z" fill="white"/>
<path d="M14.045 44.6777L32.4309 18.6924C32.9212 18.0795 33.1664 17.5892 33.4114 17.3441C31.9406 16.8539 30.1021 17.2215 29.1213 18.6924L10.3678 45.2905C11.5936 44.9228 12.8192 44.6777 14.045 44.6777Z" fill="white"/>
<path d="M65.4027 4.96411C62.8287 2.51269 59.5193 1.16431 56.0872 1.16431C57.9257 1.65459 59.887 2.88037 61.6029 4.7189C66.751 9.86696 66.751 18.2018 61.6029 23.3498L55.9646 28.9882L57.9257 30.9493L65.1575 23.7175C70.4282 18.5696 70.4282 10.1122 65.4027 4.96411Z" fill="#FFA800"/>
<path d="M50.9392 23.595L51.1844 23.9626L50.9392 23.595Z" fill="#FFA800"/>
<path d="M20.4186 62.8183C15.8835 67.3535 8.40659 67.3535 3.87143 62.8183C-0.786343 58.2831 0.929721 53.5028 5.46489 48.9676C8.16152 46.271 17.7221 43.5745 20.4188 46.271C24.9538 50.8061 24.9538 58.2831 20.4186 62.8183Z" fill="#FFE100"/>
<path d="M22.7476 49.7031C24.7087 53.9932 23.9734 59.3863 20.4188 62.9409C15.8836 67.4761 8.40672 67.4761 3.87156 62.9409C3.50388 62.5733 3.25867 62.2054 2.89099 61.8378C3.50388 63.0635 4.23924 64.1666 5.21981 65.1473C9.75497 69.6825 17.2318 69.6825 21.767 65.1473C26.057 60.8572 26.3022 54.2383 22.7476 49.7031Z" fill="#FFA800"/>
<path d="M58.0484 32.1753C57.6807 32.1753 57.4355 32.0527 57.1904 31.8076L49.9586 24.5758C49.4684 24.0855 49.4684 23.35 49.9586 22.8597L55.1067 17.7117C55.3519 17.4665 55.7196 17.344 56.0873 17.344C57.1904 17.344 57.6807 17.2214 58.2936 16.6085C58.9065 15.9956 59.2742 15.2603 59.2742 14.4022C59.2742 13.5442 58.9065 12.8087 58.2936 12.1958C57.0678 10.97 54.9842 10.97 53.7585 12.1958C53.1456 12.8087 53.023 13.299 53.023 14.4022C53.023 14.7698 52.9004 15.1376 52.6553 15.3827L47.5072 20.5308C47.0169 21.0211 46.2814 21.0211 45.7912 20.5308L38.5594 13.1764C38.0691 12.6861 38.0691 11.9506 38.5594 11.4603L45.7912 4.22851C51.4295 -1.40983 60.6224 -1.40983 66.1382 4.22851C71.7765 9.86685 71.7765 19.0598 66.1382 24.5755L58.9064 31.8073C58.6613 32.0527 58.4161 32.1753 58.0484 32.1753ZM52.5327 23.7178L58.0484 29.2336L64.4221 22.8599C69.0799 18.2021 69.0799 10.6026 64.4221 5.94485C59.7643 1.28708 52.1649 1.28708 47.5071 5.94485L41.1334 12.3185L46.6491 17.8343L50.5714 13.912C50.5714 12.8088 50.8166 11.5832 51.9196 10.48C54.126 8.27367 57.6806 8.27367 59.8868 10.48C60.99 11.5832 61.4803 12.9314 61.4803 14.4023C61.4803 15.8731 60.8674 17.344 59.8868 18.3246C58.7836 19.4277 57.4354 19.6728 56.4548 19.6728L52.5327 23.7178Z" fill="black"/>
<path d="M13.5546 69.8048C10.1226 69.8048 6.81312 68.4566 4.3617 66.005C1.91028 63.5536 0.56189 60.2441 0.56189 56.8121C0.56189 53.3801 1.91014 50.1932 4.3617 47.7417C9.38715 42.7163 17.5995 42.7163 22.7476 47.7417C25.199 50.1932 26.5474 53.5027 26.5474 56.9347C26.5474 60.3667 25.1991 63.6762 22.7476 66.1276C20.1735 68.4566 16.9866 69.8048 13.5546 69.8048ZM13.5546 46.3935C10.858 46.3935 8.1615 47.3741 6.07776 49.4578C4.11662 51.4189 3.01345 53.993 3.01345 56.8122C3.01345 59.6313 4.11662 62.2053 6.07776 64.2891C8.0389 66.3728 10.7355 67.3534 13.5546 67.3534C16.3737 67.3534 18.9478 66.2502 21.0315 64.2891C22.9926 62.3279 24.0958 59.6313 24.0958 56.8122C24.0958 53.9931 22.9926 51.4191 21.0315 49.3353C18.8252 47.3741 16.2511 46.3935 13.5546 46.3935Z" fill="black"/>
<path d="M24.5861 61.7151C24.3409 61.7151 24.0958 61.5925 23.9732 61.4699C23.4829 61.2247 23.2377 60.6119 23.4829 59.999C24.3409 57.3024 24.0958 54.2381 22.7474 51.6641C22.5022 51.1738 22.6248 50.5609 22.9927 50.1932L51.0617 23.7176C51.552 23.2273 52.2875 23.2273 52.7778 23.7176L57.9259 28.8656C58.1711 29.1108 58.2935 29.4785 58.2935 29.7236C58.2935 29.9687 58.1709 30.5815 57.9259 30.8268L25.5667 61.4699C25.199 61.5925 24.9538 61.7151 24.5861 61.7151ZM25.3216 51.5416C26.1796 53.2576 26.5474 55.2188 26.4248 57.1799L55.2292 29.9689L51.7972 26.5369L25.3216 51.5416Z" fill="black"/>
<path d="M19.0704 47.7418C18.8252 47.7418 18.7027 47.7418 18.4575 47.6192C15.8835 46.2709 12.9418 45.9031 10.1225 46.8837C9.63226 47.0063 9.01937 46.8837 8.77429 46.3934C8.40662 46.0257 8.40662 45.4128 8.77429 44.9225L27.6504 18.3243C28.5084 17.0985 29.7342 16.3632 31.205 16.2406C32.6759 16.118 34.0241 16.6082 35.1273 17.7114C36.7208 19.3049 36.9658 22.0015 35.7402 23.84L20.1736 47.2514C19.9284 47.6193 19.5607 47.7418 19.0704 47.7418ZM13.5547 43.9421C15.3932 43.9421 17.1093 44.3098 18.7027 45.0453L33.6566 22.6145C34.2695 21.634 34.1469 20.4082 33.4114 19.5502C32.9211 19.0599 32.1856 18.8147 31.4503 18.8147C30.7149 18.8147 30.102 19.305 29.7342 19.7953L12.5741 43.9421C12.9418 43.9421 13.1869 43.9421 13.5547 43.9421Z" fill="black"/>
<path d="M13.5547 62.4507C12.0838 62.4507 10.613 61.9604 9.63242 60.8572C7.42607 58.6509 7.42607 55.0963 9.63242 52.8901C10.7356 51.7869 12.0838 51.2966 13.5547 51.2966C15.0256 51.2966 16.4964 51.9095 17.477 52.8901C19.6833 55.0964 19.6833 58.651 17.477 60.8572C16.3738 61.9603 14.9029 62.4507 13.5547 62.4507ZM13.5547 53.6254C12.6967 53.6254 11.9612 53.9931 11.3483 54.606C10.1226 55.8318 10.1226 57.9154 11.3483 59.1412C12.5741 60.367 14.6577 60.367 15.8835 59.1412C17.1093 57.9154 17.1093 55.8317 15.8835 54.606C15.1482 53.9931 14.4127 53.6254 13.5547 53.6254Z" fill="black"/>
</g>
<defs>
<clipPath id="clip0_111_2996">
<rect width="71" height="71" fill="white"/>
</clipPath>
</defs>
</svg>
