<svg width="88" height="82" viewBox="0 0 88 82" fill="none" xmlns="http://www.w3.org/2000/svg">
<circle cx="30.5" cy="30.5" r="30.5" fill="#FFCC00"/>
<path d="M87.7141 35.447C87.3334 35.0659 86.7157 35.0659 86.3346 35.447L80.2583 41.5234C80.1001 41.6816 80.0012 41.8893 79.978 42.1119C79.4943 46.7403 77.4158 51.1017 74.125 54.3923L72.6811 55.8362L62.1893 45.3445C62.8529 45.5011 63.5025 45.5804 64.1333 45.5804C65.0585 45.5804 65.944 45.4112 66.7757 45.0709C67.2744 44.8669 67.5132 44.2972 67.3093 43.7986C67.1053 43.2998 66.5354 43.0613 66.037 43.2651C62.0197 44.9086 57.3882 40.5344 56.8049 39.96L54.0171 37.1723C54.3632 35.7045 54.0644 34.1293 53.1744 32.8495C52.1683 31.4031 50.5687 30.5736 48.779 30.5736L42.0268 30.6219C42.0208 30.6219 42.0148 30.6219 42.0089 30.6219C41.3625 30.6219 40.7547 30.3714 40.2956 29.9155C39.8323 29.4553 39.5772 28.8423 39.5773 28.189V28.0874C39.5776 26.7767 40.6039 25.7095 41.9136 25.6579L54.2101 25.1734C58.6478 24.9987 63.0712 26.3464 66.6587 28.9682C67.0471 29.2518 67.5841 29.2104 67.924 28.8703L74.3822 22.4121C74.7633 22.0312 74.7633 21.4134 74.3824 21.0325C74.0013 20.6515 73.3837 20.6515 73.0027 21.0325L67.1236 26.9118C63.3119 24.3486 58.7313 23.043 54.1333 23.2239L41.8368 23.7083C41.8078 23.7095 41.7794 23.7121 41.7508 23.7139L37.0852 19.0485C36.7043 18.6674 36.0866 18.6674 35.7057 19.0485C35.3247 19.4294 35.3247 20.0471 35.7057 20.428L39.6606 24.3829C38.4333 25.1594 37.6267 26.5274 37.6263 28.0872V28.1888C37.626 29.3657 38.0858 30.4706 38.9207 31.3C39.7558 32.1293 40.8629 32.5815 42.0407 32.5729L48.7859 32.5246C50.3397 32.5246 51.1988 33.4262 51.5725 33.9636C51.8572 34.3729 52.0479 34.8276 52.1408 35.2961L51.8064 34.9618C51.4255 34.5807 50.8078 34.5807 50.4269 34.9618C50.0459 35.3427 50.0459 35.9604 50.4269 36.3413L72.4385 58.3529C73.3891 59.3034 73.3891 60.8501 72.4385 61.8006C71.4885 62.7507 69.9427 62.7509 68.9924 61.8018L54.9719 47.7815C54.5912 47.4004 53.9733 47.4004 53.5925 47.7815C53.2115 48.1624 53.2115 48.7801 53.5925 49.161L68.6939 64.2625C69.6445 65.2129 69.6445 66.7597 68.6939 67.7101C68.2336 68.1706 67.6214 68.4242 66.9701 68.4242C66.3189 68.4242 65.7067 68.1706 65.2464 67.7101L50.9307 53.3944C50.5497 53.0135 49.9321 53.0135 49.5512 53.3944C49.1703 53.7753 49.1701 54.3931 49.5512 54.774L61.2816 66.5045C62.2313 67.4551 62.231 69.001 61.2808 69.9511C60.3301 70.9017 58.7835 70.9016 57.8331 69.9511L45.0931 57.2111C44.7122 56.8301 44.0944 56.8301 43.7135 57.2111C43.3325 57.592 43.3325 58.2098 43.7135 58.5907L53.1636 68.0408L53.1638 68.0409C54.1144 68.9914 54.1144 70.5379 53.1638 71.4885C52.2135 72.439 50.6667 72.439 49.7163 71.4885L32.6193 54.3923C29.3287 51.1017 27.2501 46.7403 26.7665 42.1119C26.7432 41.8893 26.6443 41.6816 26.486 41.5234L18.6653 33.7026C18.2844 33.3215 17.6667 33.3215 17.2858 33.7026C16.9047 34.0835 16.9047 34.7012 17.2858 35.0821L24.8651 42.6615C25.4606 47.6042 27.7161 52.248 31.2398 55.7717L32.6784 57.2104C32.1428 57.9519 31.853 58.8396 31.853 59.7724C31.853 60.9447 32.3095 62.0469 33.1384 62.8757C33.994 63.7314 35.1178 64.1592 36.2418 64.1592C36.3524 64.1592 36.4629 64.1538 36.5732 64.1456C36.5355 64.3785 36.5152 64.6159 36.5152 64.8565C36.5152 66.0288 36.9718 67.131 37.8007 67.9599C38.6563 68.8155 39.7801 69.2433 40.904 69.2433C41.1227 69.2433 41.3414 69.2267 41.5581 69.1943C41.3592 70.5247 41.7703 71.9296 42.7923 72.9517C43.6212 73.7806 44.7234 74.2371 45.8957 74.2371C46.9405 74.2371 47.9291 73.8736 48.7188 73.2077C49.5134 73.8367 50.4763 74.1522 51.4399 74.1522C52.5637 74.1522 53.6878 73.7243 54.5435 72.8687C55.1808 72.2313 55.5804 71.4449 55.7429 70.6206L56.4532 71.331C57.309 72.1867 58.4326 72.6144 59.5567 72.6144C60.6805 72.6144 61.8048 72.1866 62.6604 71.331C63.2978 70.6936 63.6973 69.9073 63.8598 69.0831L63.8666 69.0898C64.6955 69.9187 65.7976 70.3752 66.9701 70.3752C68.1427 70.3752 69.2447 69.9187 70.0737 69.0898C71.3267 67.8368 71.661 66.0087 71.079 64.4475C72.0785 64.365 73.0552 63.9433 73.8182 63.1801C75.4478 61.5505 75.5243 58.9486 74.0503 57.2261L75.5045 55.7717C79.0283 52.248 81.2837 47.6041 81.8793 42.6613L87.7143 36.8264C88.0952 36.4455 88.0952 35.8279 87.7141 35.447ZM34.5181 61.4962C34.0577 61.0358 33.804 60.4236 33.804 59.7724C33.804 59.3646 33.9035 58.9723 34.0908 58.6228L37.3914 61.9233C37.042 62.1106 36.6496 62.2101 36.2418 62.2101C35.5907 62.2104 34.9786 61.9568 34.5181 61.4962ZM39.1804 66.5805C38.7199 66.12 38.4663 65.5079 38.4663 64.8567C38.4663 64.3444 38.6252 63.8577 38.9164 63.4486L42.3118 66.844C41.3607 67.5182 40.0319 67.4319 39.1804 66.5805ZM44.172 71.5721C43.3205 70.7206 43.2343 69.3919 43.9085 68.4407L47.3039 71.8361C46.8948 72.1271 46.4079 72.2862 45.8957 72.2862C45.2446 72.2862 44.6325 72.0326 44.172 71.5721Z" fill="black"/>
</svg>
