<svg width="91" height="76" viewBox="0 0 91 76" fill="none" xmlns="http://www.w3.org/2000/svg">
<circle cx="30.5" cy="30.5" r="30.5" fill="#FFCC00"/>
<path d="M87.5654 61.1128H86.4201V48.516H81.731L80.5857 37.0644H70.3881V26.7581H64.6038C64.629 26.378 64.6622 26 64.6622 25.6128C64.6622 20.9978 62.8231 16.81 59.8515 13.7203L60.6542 12.9175L62.7076 14.9709L64.3268 13.3516L58.6011 7.62574L56.9819 9.24496L59.0353 11.2983L58.157 12.1766C55.5037 10.0648 52.2171 8.73193 48.6305 8.49374V7.29031H52.0659V5H42.9046V7.29031H46.34V8.49398C42.7534 8.73217 39.4668 10.0663 36.8135 12.1768L35.9352 11.2985L37.9886 9.24521L36.3693 7.62598L30.6429 13.3516L32.2622 14.9709L34.3155 12.9175L35.1183 13.7203C32.1466 16.81 30.3075 20.9978 30.3075 25.6128C30.3075 25.9998 30.3407 26.3777 30.3659 26.7581H24.5816V61.1128H23.4366C21.5425 61.1128 20.001 62.6541 20.001 64.5482C20.001 66.4422 21.5423 67.9838 23.4363 67.9838H24.5814H26.8717H30.307C30.307 72.4029 33.9029 76 38.323 76C42.7431 76 46.339 72.4032 46.339 67.9838H68.0969C68.0969 72.4029 71.6927 76 76.1128 76C80.533 76 84.1288 72.4032 84.1288 67.9838H86.4191H87.5644C89.4585 67.9838 90.9997 66.4425 90.9997 64.5482C90.9997 62.6539 89.4594 61.1128 87.5654 61.1128ZM78.5128 39.3547L79.429 48.516H70.3879V39.3547H78.5128ZM47.4848 10.7259C55.6932 10.7259 62.3717 17.4043 62.3717 25.6131C62.3717 33.8218 55.6932 40.5 47.4848 40.5C39.2763 40.5 32.5978 33.8213 32.5978 25.6128C32.5978 17.4043 39.2763 10.7259 47.4848 10.7259ZM24.5816 65.6935H23.4366C22.8055 65.6935 22.2915 65.1804 22.2915 64.5482C22.2915 63.9159 22.8058 63.4029 23.4366 63.4029H24.5816V65.6935ZM38.3235 73.7094C35.1664 73.7094 32.5978 71.1409 32.5978 67.9835C32.5978 64.8262 35.1664 62.2579 38.3235 62.2579C41.4806 62.2579 44.0492 64.8264 44.0492 67.9838C44.0492 71.1411 41.4808 73.7094 38.3235 73.7094ZM46.0019 65.6935C45.0134 62.3861 41.9467 59.9676 38.3235 59.9676C34.7003 59.9676 31.6336 62.3861 30.6451 65.6935H26.8719V61.1128V29.0484H30.6532C32.2495 36.879 39.1893 42.7903 47.4848 42.7903C55.7802 42.7903 62.7198 36.879 64.3163 29.0484H68.0976V37.0647V48.5162V50.8065V65.6937L46.0019 65.6935ZM76.1136 73.7094C72.9565 73.7094 70.3879 71.1409 70.3879 67.9835C70.3879 64.8262 72.9565 62.2576 76.1136 62.2576C79.2707 62.2576 81.8392 64.8262 81.8392 67.9835C81.8392 71.1409 79.2709 73.7094 76.1136 73.7094ZM84.13 65.6935H83.7922C82.8037 62.3861 79.737 59.9676 76.1136 59.9676C73.8714 59.9676 71.8444 60.8952 70.3879 62.3849V50.8063H81.9597H84.1298V61.1128L84.13 65.6935ZM87.5654 65.6935H86.4201V63.4031H87.5654C88.1964 63.4031 88.7104 63.9162 88.7104 64.5484C88.7104 65.1807 88.1962 65.6935 87.5654 65.6935Z" fill="black"/>
<path d="M38.323 64.5482C36.429 64.5482 34.8877 66.0895 34.8877 67.9838C34.8877 69.8779 36.429 71.4194 38.323 71.4194C40.2171 71.4194 41.7584 69.8781 41.7584 67.9838C41.7586 66.0895 40.2171 64.5482 38.323 64.5482ZM38.323 69.1288C37.692 69.1288 37.178 68.6158 37.178 67.9836C37.178 67.3513 37.6923 66.8383 38.323 66.8383C38.9538 66.8383 39.4681 67.3513 39.4681 67.9836C39.4681 68.6158 38.9541 69.1288 38.323 69.1288Z" fill="black"/>
<path d="M76.1131 64.5482C74.219 64.5482 72.6777 66.0895 72.6777 67.9838C72.6777 69.8779 74.219 71.4194 76.1131 71.4194C78.0071 71.4194 79.5484 69.8781 79.5484 67.9838C79.5487 66.0895 78.0071 64.5482 76.1131 64.5482ZM76.1131 69.1288C75.4821 69.1288 74.9678 68.6158 74.9678 67.9836C74.9678 67.3513 75.4821 66.8383 76.1131 66.8383C76.7441 66.8383 77.2581 67.3513 77.2581 67.9836C77.2581 68.6158 76.7441 69.1288 76.1131 69.1288Z" fill="black"/>
<path d="M44.0497 25.6128C44.0497 27.5069 45.591 29.0484 47.4851 29.0484C49.3791 29.0484 50.9204 27.5071 50.9204 25.6128C50.9204 23.7185 49.3791 22.1772 47.4851 22.1772C47.2903 22.1772 47.1025 22.2036 46.9158 22.2344L40.3381 14.5609L38.5986 16.0519L44.8879 23.3889C44.3724 23.9902 44.0497 24.7609 44.0497 25.6128ZM48.6303 25.6128C48.6303 26.2438 48.1161 26.7581 47.4853 26.7581C46.8543 26.7581 46.3403 26.2438 46.3403 25.6128C46.3403 24.9818 46.8545 24.4675 47.4853 24.4675C48.1161 24.4678 48.6303 24.9818 48.6303 25.6128Z" fill="black"/>
<path d="M46.4399 38.1582L46.6278 35.8759C41.3292 35.4384 37.178 30.9311 37.178 25.6131C37.178 23.0961 38.1056 20.6682 39.7901 18.7742L38.0792 17.2522C36.0215 19.5655 34.8877 22.5347 34.8877 25.6129C34.8877 32.114 39.9618 37.6244 46.4399 38.1582Z" fill="black"/>
</svg>
