<svg width="71" height="71" viewBox="0 0 71 71" fill="none" xmlns="http://www.w3.org/2000/svg">
<g clip-path="url(#clip0_111_2935)">
<path d="M20.1166 11.8333C19.4066 11.8333 18.9333 11.36 18.9333 10.65V3.54999C18.9333 2.83999 19.4066 2.3667 20.1166 2.3667C20.8266 2.3667 21.2999 2.83999 21.2999 3.54999V10.65C21.2999 11.36 20.8266 11.8333 20.1166 11.8333Z" fill="#FFE100"/>
<path d="M53.2499 11.8333C52.5399 11.8333 52.0667 11.36 52.0667 10.65V3.54999C52.0667 2.83999 52.5399 2.3667 53.2499 2.3667C53.9599 2.3667 54.4332 2.83999 54.4332 3.54999V10.65C54.4332 11.36 53.9599 11.8333 53.2499 11.8333Z" fill="#FFE100"/>
<path d="M24.8499 4.73327H20.1166C19.4066 4.73327 18.9333 4.25999 18.9333 3.54999C18.9333 2.83999 19.4066 2.3667 20.1166 2.3667H24.8499C25.5599 2.3667 26.0332 2.83999 26.0332 3.54999C26.0332 4.25999 25.5599 4.73327 24.8499 4.73327Z" fill="#FFE100"/>
<path d="M53.2499 4.73327H48.5167C47.8067 4.73327 47.3334 4.25999 47.3334 3.54999C47.3334 2.83999 47.8067 2.3667 48.5167 2.3667H53.2499C53.9599 2.3667 54.4332 2.83999 54.4332 3.54999C54.4332 4.25999 53.9599 4.73327 53.2499 4.73327Z" fill="#FFE100"/>
<path d="M15.3832 49.6999C14.6732 49.6999 14.2 49.2266 14.2 48.5166V40.2333C14.2 39.5233 14.6732 39.05 15.3832 39.05C16.0932 39.05 16.5665 39.5233 16.5665 40.2333V48.5166C16.5667 49.2266 16.0932 49.6999 15.3832 49.6999Z" fill="#FFE100"/>
<path d="M17.7499 46.15H13.0167C12.3067 46.15 11.8334 45.6767 11.8334 44.9667C11.8334 44.2567 12.3067 43.7834 13.0167 43.7834H17.7499C18.4599 43.7834 18.9332 44.2567 18.9332 44.9667C18.9332 45.6767 18.4599 46.15 17.7499 46.15Z" fill="#FFE100"/>
<path d="M46.6233 5.91678H24.3767C24.0217 5.91678 23.6667 5.56178 23.6667 5.20678V1.89335C23.6667 1.53835 24.0217 1.18335 24.3767 1.18335H46.505C46.9783 1.18335 47.3333 1.53835 47.3333 1.89335V5.08835C47.3333 5.56178 46.9783 5.91678 46.6233 5.91678Z" fill="#00DA6C"/>
<path d="M65.4382 51.2382L62.7165 37.6299C60.9415 28.6366 61.4148 22.9566 62.3615 13.8449C62.4798 12.1882 61.1782 10.6499 59.5215 10.6499H1.18323V17.6316C1.18323 25.5599 2.12994 29.9383 4.02323 37.6299C4.49651 39.1682 5.79823 40.2332 7.45494 40.2332H21.4182C23.3115 40.2332 24.8499 38.6949 24.8499 36.8015V26.0332H39.0499V55.6165H1.18323V69.8165H63.4265C64.9648 69.8165 66.2665 68.5148 66.2665 66.9765V62.4799C66.2667 58.6932 66.0299 54.9066 65.4382 51.2382Z" fill="#FFE100"/>
<path d="M65.4383 51.2382L62.7166 37.6299C60.9416 28.6366 61.4149 22.9566 62.3616 13.8449C62.4799 12.1882 61.1783 10.6499 59.5216 10.6499H4.73328V17.6316C4.73328 25.5599 5.67999 29.9383 7.57328 37.6299C8.04656 39.1682 9.34828 40.2332 11.005 40.2332H21.4183C23.3116 40.2332 24.85 38.6949 24.85 36.8015V26.0332H39.05V55.6165H4.73328V69.8165H63.4266C64.9648 69.8165 66.2666 68.5148 66.2666 66.9765V62.4799C66.2667 58.6932 66.03 54.9066 65.4383 51.2382Z" fill="#FFE100"/>
<path d="M1.18323 69.8167H4.73323V55.6167H1.18323V69.8167Z" fill="white"/>
<path d="M7.45492 40.2332H11.0049C9.46664 40.2332 8.04664 39.1682 7.69164 37.6299C5.67992 29.9382 4.73335 25.5599 4.73335 17.6316V10.6499H1.18335V17.6316C1.18335 25.5599 2.13006 29.9383 4.02335 37.6299C4.49664 39.1682 5.79821 40.2332 7.45492 40.2332Z" fill="white"/>
<path d="M68.6332 51.2382L65.9115 37.6299C64.1365 28.6366 64.6098 22.9566 65.5565 13.8449C65.7932 12.0699 64.3732 10.6499 62.7165 10.6499H59.1665C60.8232 10.6499 62.2432 12.0699 62.0065 13.8449C61.0598 22.9566 60.5865 28.6366 62.3615 37.6299L65.0832 51.2382C65.6749 54.9065 65.9115 58.6932 65.9115 62.3615V66.8582C65.9115 68.3965 64.6098 69.6982 63.0715 69.6982H66.6215C68.1598 69.6982 69.4615 68.3965 69.4615 66.8582V62.3615C69.4616 58.6932 69.2249 54.9066 68.6332 51.2382Z" fill="#FFA800"/>
<path d="M70.7634 46.9782C70.6451 46.2682 70.2901 44.0199 70.2901 43.3099C70.1718 41.5349 70.1718 41.7716 69.8168 40.1149C68.5151 34.1982 68.9885 36.2099 68.6335 34.1982C67.4502 26.9799 67.8052 21.8915 68.6335 13.7265C68.8702 12.0698 67.4502 10.5315 65.7935 10.5315H62.7168C64.3735 10.5315 65.7935 11.9515 65.5568 13.7265C64.6101 22.8382 64.3735 28.5182 66.2668 37.5115L71.0001 61.5332V51.3565C71.0001 49.9366 71.0001 48.5166 70.7634 46.9782Z" fill="#FFE100"/>
<path d="M14.2 30.7668C12.8983 30.7668 11.8333 29.7018 11.8333 28.4V23.6668C11.8333 22.365 12.8983 21.3 14.2 21.3C15.5017 21.3 16.5667 22.365 16.5667 23.6668V28.4C16.5667 29.7018 15.5017 30.7668 14.2 30.7668Z" fill="#00DA6C"/>
<path d="M56.8 42.6C56.8 46.505 53.605 49.7 49.7 49.7C48.99 49.7 46.15 46.505 46.15 42.6C46.15 38.695 48.99 35.5 49.7 35.5C53.605 35.5 56.8 38.695 56.8 42.6Z" fill="#63D3FD"/>
<path d="M53.25 35.5C52.6583 35.5 52.0667 35.6183 51.475 35.7367C54.5517 36.565 56.8 39.2867 56.8 42.6C56.8 45.9133 54.5517 48.635 51.475 49.4633C52.0667 49.5816 52.6583 49.7 53.25 49.7C57.155 49.7 60.35 46.505 60.35 42.6C60.35 38.695 57.155 35.5 53.25 35.5Z" fill="#3DB9F9"/>
<path d="M66.9767 71.0001H1.18329C0.473287 71.0001 0 70.5268 0 69.8168V55.6168C0 54.9068 0.473287 54.4335 1.18329 54.4335H37.8666V27.2168H26.0333V36.8018C26.0333 39.4051 23.9033 41.4168 21.4183 41.4168H7.455C5.325 41.4168 3.43171 39.9968 2.95829 37.8668C1.065 30.1751 0 25.7968 0 17.6318V10.6501C0 9.94008 0.473287 9.4668 1.18329 9.4668H63.0716C64.2549 9.4668 65.3199 9.94008 66.0299 10.7685C66.7399 11.5968 67.2131 12.7802 67.0949 13.8452C66.1481 23.1935 65.6749 28.5185 67.4499 37.2752L70.1716 50.8835C70.7633 54.6702 70.9999 58.4568 70.9999 62.2435V66.7402C71 69.2251 69.225 71.0001 66.9767 71.0001ZM2.36671 68.6334H66.9767C67.9234 68.6334 68.6334 67.9234 68.6334 66.9767V62.4801C68.6334 58.8118 68.3967 55.1434 67.8051 51.5934L65.0834 37.8667C63.3084 28.7549 63.6634 23.0749 64.7284 13.7267C64.7284 13.2534 64.6101 12.7799 64.2551 12.4249C63.9001 12.0699 63.5451 11.8332 63.0718 11.8332H2.36671V17.6315C2.36671 25.5598 3.31343 29.8198 5.20671 37.2748C5.44343 38.3398 6.39 38.9315 7.455 38.9315H21.4183C22.72 38.9315 23.6666 37.8665 23.6666 36.6832V26.0332C23.6666 25.3232 24.1399 24.8499 24.8499 24.8499H39.0499C39.7599 24.8499 40.2331 25.3232 40.2331 26.0332V55.6165C40.2331 56.3265 39.7599 56.7998 39.0499 56.7998H2.36671V68.6334Z" fill="black"/>
<path d="M14.2 49.6999C13.49 49.6999 13.0167 49.2266 13.0167 48.5166V40.2333C13.0167 39.5233 13.49 39.05 14.2 39.05C14.91 39.05 15.3833 39.5233 15.3833 40.2333V48.5166C15.3833 49.2266 14.91 49.6999 14.2 49.6999Z" fill="black"/>
<path d="M14.2 22.4834C13.49 22.4834 13.0167 22.0101 13.0167 21.3001V16.5668C13.0167 15.8568 13.49 15.3835 14.2 15.3835C14.91 15.3835 15.3833 15.8568 15.3833 16.5668V21.3001C15.3833 22.0101 14.91 22.4834 14.2 22.4834Z" fill="black"/>
<path d="M18.9333 11.8333C18.2233 11.8333 17.75 11.36 17.75 10.65V3.54999C17.75 2.83999 18.2233 2.3667 18.9333 2.3667C19.6433 2.3667 20.1166 2.83999 20.1166 3.54999V10.65C20.1167 11.36 19.6433 11.8333 18.9333 11.8333Z" fill="black"/>
<path d="M52.0667 11.8333C51.3567 11.8333 50.8834 11.36 50.8834 10.65V3.54999C50.8834 2.83999 51.3567 2.3667 52.0667 2.3667C52.7767 2.3667 53.25 2.83999 53.25 3.54999V10.65C53.25 11.36 52.7767 11.8333 52.0667 11.8333Z" fill="black"/>
<path d="M14.2 35.5001C13.49 35.5001 13.0167 35.0268 13.0167 34.3168V30.7668C13.0167 30.0568 13.49 29.5835 14.2 29.5835C14.91 29.5835 15.3833 30.0568 15.3833 30.7668V34.3168C15.3833 35.0268 14.91 35.5001 14.2 35.5001Z" fill="black"/>
<path d="M16.5667 46.15H11.8333C11.1233 46.15 10.65 45.6767 10.65 44.9667C10.65 44.2567 11.1233 43.7834 11.8333 43.7834H16.5666C17.2766 43.7834 17.7499 44.2567 17.7499 44.9667C17.75 45.6767 17.2767 46.15 16.5667 46.15Z" fill="black"/>
<path d="M14.2 31.95C12.1883 31.95 10.65 30.4117 10.65 28.4V23.6667C10.65 21.655 12.1883 20.1167 14.2 20.1167C16.2117 20.1167 17.75 21.655 17.75 23.6667V28.4C17.75 30.4117 16.2117 31.95 14.2 31.95ZM14.2 22.4833C13.49 22.4833 13.0167 22.9566 13.0167 23.6666V28.4C13.0167 29.11 13.49 29.5833 14.2 29.5833C14.91 29.5833 15.3833 29.11 15.3833 28.4V23.6667C15.3833 22.9567 14.91 22.4833 14.2 22.4833Z" fill="black"/>
<path d="M53.25 50.8832C48.635 50.8832 44.9667 47.2149 44.9667 42.5999C44.9667 37.9849 48.635 34.3167 53.25 34.3167C57.865 34.3167 61.5333 37.9849 61.5333 42.5999C61.5333 47.2149 57.865 50.8832 53.25 50.8832ZM53.25 36.6832C49.9367 36.6832 47.3333 39.2865 47.3333 42.5999C47.3333 45.9132 49.9365 48.5167 53.25 48.5167C56.5633 48.5167 59.1667 45.9134 59.1667 42.5999C59.1667 39.2867 56.5633 36.6832 53.25 36.6832Z" fill="black"/>
<path d="M52.0668 55.6166C52.0668 56.3266 51.5935 56.7999 50.8835 56.7999C50.1735 56.7999 49.7002 56.3266 49.7002 55.6166C49.7002 54.9066 50.1735 54.4333 50.8835 54.4333C51.5935 54.4333 52.0668 54.9066 52.0668 55.6166Z" fill="black"/>
<path d="M56.8 55.6166C56.8 56.3266 56.3268 56.7999 55.6168 56.7999C54.9068 56.7999 54.4335 56.3266 54.4335 55.6166C54.4335 54.9066 54.9068 54.4333 55.6168 54.4333C56.3268 54.4333 56.8 54.9066 56.8 55.6166Z" fill="black"/>
<path d="M49.6999 29.5832C49.6999 30.2932 49.2267 30.7665 48.5167 30.7665C47.8067 30.7665 47.3334 30.2932 47.3334 29.5832C47.3334 28.8732 47.8067 28.3999 48.5167 28.3999C49.2267 28.3999 49.6999 28.8732 49.6999 29.5832Z" fill="black"/>
<path d="M54.4332 29.5832C54.4332 30.2932 53.9599 30.7665 53.2499 30.7665C52.5399 30.7665 52.0667 30.2932 52.0667 29.5832C52.0667 28.8732 52.5399 28.3999 53.2499 28.3999C53.9599 28.3999 54.4332 28.8732 54.4332 29.5832Z" fill="black"/>
<path d="M59.1666 29.5832C59.1666 30.2932 58.6933 30.7665 57.9833 30.7665C57.2733 30.7665 56.8 30.2932 56.8 29.5832C56.8 28.8732 57.2733 28.3999 57.9833 28.3999C58.6933 28.3999 59.1666 28.8732 59.1666 29.5832Z" fill="black"/>
<path d="M37.8667 18.9332H26.0334C25.3234 18.9332 24.8501 18.4599 24.8501 17.7499C24.8501 17.0399 25.3234 16.5667 26.0334 16.5667H37.8667C38.5767 16.5667 39.05 17.0399 39.05 17.7499C39.05 18.4599 38.5767 18.9332 37.8667 18.9332Z" fill="black"/>
<path d="M24.85 61.5333H1.18329C0.473287 61.5333 0 61.06 0 60.35C0 59.64 0.473287 59.1667 1.18329 59.1667H24.85C25.56 59.1667 26.0333 59.64 26.0333 60.35C26.0333 61.06 25.56 61.5333 24.85 61.5333Z" fill="black"/>
<path d="M13.0167 66.2667H1.18329C0.473287 66.2667 0 65.7934 0 65.0834C0 64.3734 0.473287 63.9001 1.18329 63.9001H13.0166C13.7266 63.9001 14.1999 64.3734 14.1999 65.0834C14.2 65.7933 13.7267 66.2667 13.0167 66.2667Z" fill="black"/>
<path d="M47.3333 7.1H23.6667C22.9567 7.1 22.4834 6.62671 22.4834 5.91671V1.18329C22.4834 0.473287 22.9567 0 23.6667 0H47.3334C48.0434 0 48.5167 0.473287 48.5167 1.18329V5.91657C48.5167 6.62671 48.0433 7.1 47.3333 7.1ZM24.85 4.73329H46.15V2.36671H24.85V4.73329Z" fill="black"/>
<path d="M23.6667 4.73327H18.9334C18.2234 4.73327 17.7501 4.25999 17.7501 3.54999C17.7501 2.83999 18.2234 2.3667 18.9334 2.3667H23.6667C24.3767 2.3667 24.85 2.83999 24.85 3.54999C24.85 4.25999 24.3767 4.73327 23.6667 4.73327Z" fill="black"/>
<path d="M52.0667 4.73327H47.3334C46.6234 4.73327 46.1501 4.25999 46.1501 3.54999C46.1501 2.83999 46.6234 2.3667 47.3334 2.3667H52.0667C52.7767 2.3667 53.25 2.83999 53.25 3.54999C53.25 4.25999 52.7767 4.73327 52.0667 4.73327Z" fill="black"/>
<path d="M29.5833 7.1C28.8733 7.1 28.4 6.62671 28.4 5.91671V1.18329C28.4 0.473287 28.8733 0 29.5833 0C30.2933 0 30.7666 0.473287 30.7666 1.18329V5.91657C30.7667 6.62671 30.2933 7.1 29.5833 7.1Z" fill="black"/>
<path d="M35.4999 7.1C34.7899 7.1 34.3167 6.62671 34.3167 5.91671V1.18329C34.3167 0.473287 34.7899 0 35.4999 0C36.2099 0 36.6832 0.473287 36.6832 1.18329V5.91657C36.6832 6.62671 36.2099 7.1 35.4999 7.1Z" fill="black"/>
<path d="M41.4167 7.1C40.7067 7.1 40.2334 6.62671 40.2334 5.91671V1.18329C40.2334 0.473287 40.7067 0 41.4167 0C42.1267 0 42.6 0.473287 42.6 1.18329V5.91657C42.6 6.62671 42.1267 7.1 41.4167 7.1Z" fill="black"/>
<path d="M55.6167 46.15C55.2617 46.15 55.025 46.0317 54.7884 45.795L50.0552 41.0617C49.5819 40.5884 49.5819 39.8784 50.0552 39.405C50.5284 38.9317 51.2384 38.9317 51.7119 39.405L56.4452 44.1383C56.9184 44.6116 56.9184 45.3216 56.4452 45.795C56.2083 46.0317 55.9717 46.15 55.6167 46.15Z" fill="black"/>
<path d="M50.8833 46.15C50.5283 46.15 50.2916 46.0317 50.055 45.795C49.5818 45.3217 49.5818 44.6117 50.055 44.1383L54.7883 39.405C55.2616 38.9317 55.9716 38.9317 56.445 39.405C56.9183 39.8783 56.9183 40.5883 56.445 41.0617L51.7118 45.795C51.475 46.0317 51.2383 46.15 50.8833 46.15Z" fill="black"/>
</g>
<defs>
<clipPath id="clip0_111_2935">
<rect width="71" height="71" fill="white"/>
</clipPath>
</defs>
</svg>
