<svg width="46" height="46" viewBox="0 0 46 46" fill="none" xmlns="http://www.w3.org/2000/svg">
<circle cx="23" cy="23" r="22.5" transform="rotate(-180 23 23)" fill="white" stroke="#878786"/>
<path d="M13 22.5C12.7239 22.5 12.5 22.7239 12.5 23C12.5 23.2761 12.7239 23.5 13 23.5L13 22.5ZM33.3536 23.3536C33.5488 23.1583 33.5488 22.8417 33.3536 22.6464L30.1716 19.4645C29.9763 19.2692 29.6597 19.2692 29.4645 19.4645C29.2692 19.6597 29.2692 19.9763 29.4645 20.1716L32.2929 23L29.4645 25.8284C29.2692 26.0237 29.2692 26.3403 29.4645 26.5355C29.6597 26.7308 29.9763 26.7308 30.1716 26.5355L33.3536 23.3536ZM13 23.5L33 23.5L33 22.5L13 22.5L13 23.5Z" fill="#EC9704"/>
</svg>
