<svg width="41" height="41" viewBox="0 0 41 41" fill="none" xmlns="http://www.w3.org/2000/svg">
<circle cx="20.5" cy="20.5" r="20.5" fill="#FFCC00"/>
<path d="M9.02075 19.159H32.4168L31.1855 31.8832H10.6626L9.02075 19.159Z" fill="#878786"/>
<path d="M32.4554 15.4072H23.3099C23.0903 15.4072 22.9123 15.5852 22.9123 15.8048C22.9123 16.0244 23.0903 16.2024 23.3099 16.2024H32.4554C32.6747 16.2024 32.8531 16.3808 32.8531 16.6V18.5882H30.0696C29.85 18.5882 29.5437 18.7662 29.5437 18.9858C29.5437 19.2054 29.85 19.3835 30.0696 19.3835H32.1747L31.3431 30.9717C31.3133 31.3857 30.965 31.71 30.5498 31.71H11.2984C10.8833 31.71 10.5349 31.3857 10.5052 30.9717L9.67352 19.3835H30.0696C30.2892 19.3835 31.8881 19.2054 31.8881 18.9858C31.8881 18.7662 30.2892 18.5882 30.0696 18.5882H8.99521V16.6C8.99521 16.3808 9.1736 16.2024 9.39284 16.2024H18.5384C18.758 16.2024 18.936 16.0244 18.936 15.8048C18.936 15.5852 18.758 15.4072 18.5384 15.4072H9.39284C8.73511 15.4072 8.19995 15.9423 8.19995 16.6V18.5882C8.19995 18.9859 8.49375 19.3154 8.87553 19.3735L9.71204 31.0286C9.77144 31.8566 10.4683 32.5053 11.2984 32.5053H30.5498C31.38 32.5053 32.0768 31.8566 32.1362 31.0286L32.9727 19.3735C33.3545 19.3154 33.6483 18.9859 33.6483 18.5882V16.6C33.6483 15.9423 33.1132 15.4072 32.4554 15.4072Z" fill="black"/>
<path d="M20.9241 17.7929C21.5818 17.7929 22.117 17.2578 22.117 16.6001V8.64744C22.117 7.98971 21.5818 7.45454 20.9241 7.45454C20.2664 7.45454 19.7312 7.98971 19.7312 8.64744V16.6001C19.7312 17.2578 20.2664 17.7929 20.9241 17.7929ZM20.5265 8.64744C20.5265 8.42819 20.7048 8.24981 20.9241 8.24981C21.1433 8.24981 21.3217 8.42819 21.3217 8.64744V16.6001C21.3217 16.8193 21.1433 16.9977 20.9241 16.9977C20.7048 16.9977 20.5265 16.8193 20.5265 16.6001V8.64744Z" fill="black"/>
<path d="M20.5266 21.3716V29.7219C20.5266 29.9415 20.7047 30.1195 20.9242 30.1195C21.1438 30.1195 21.3219 29.9415 21.3219 29.7219V21.3716C21.3219 21.152 21.1438 20.974 20.9242 20.974C20.7047 20.974 20.5266 21.152 20.5266 21.3716Z" fill="black"/>
<path d="M18.5383 21.3716V29.7219C18.5383 29.9415 18.7164 30.1195 18.936 30.1195C19.1556 30.1195 19.3336 29.9415 19.3336 29.7219V21.3716C19.3336 21.152 19.1556 20.974 18.936 20.974C18.7164 20.974 18.5383 21.152 18.5383 21.3716Z" fill="black"/>
<path d="M24.5029 21.3716V29.7219C24.5029 29.9415 24.681 30.1195 24.9006 30.1195C25.1202 30.1195 25.2982 29.9415 25.2982 29.7219V21.3716C25.2982 21.152 25.1202 20.974 24.9006 20.974C24.681 20.974 24.5029 21.152 24.5029 21.3716Z" fill="black"/>
<path d="M22.5146 21.3716V29.7219C22.5146 29.9415 22.6927 30.1195 22.9123 30.1195C23.1319 30.1195 23.3099 29.9415 23.3099 29.7219V21.3716C23.3099 21.152 23.1319 20.974 22.9123 20.974C22.6927 20.974 22.5146 21.152 22.5146 21.3716Z" fill="black"/>
<path d="M26.491 21.3716V29.7219C26.491 29.9415 26.669 30.1195 26.8886 30.1195C27.1082 30.1195 27.2862 29.9415 27.2862 29.7219V21.3716C27.2862 21.152 27.1082 20.974 26.8886 20.974C26.669 20.974 26.491 21.152 26.491 21.3716Z" fill="black"/>
<path d="M28.479 21.3716V29.7219C28.479 29.9415 28.657 30.1195 28.8766 30.1195C29.0962 30.1195 29.2743 29.9415 29.2743 29.7219V21.3716C29.2743 21.152 29.0962 20.974 28.8766 20.974C28.657 20.974 28.479 21.152 28.479 21.3716Z" fill="black"/>
<path d="M12.574 21.3716V29.7219C12.574 29.9415 12.752 30.1195 12.9716 30.1195C13.1912 30.1195 13.3692 29.9415 13.3692 29.7219V21.3716C13.3692 21.152 13.1912 20.974 12.9716 20.974C12.752 20.974 12.574 21.152 12.574 21.3716Z" fill="black"/>
<path d="M14.562 21.3716V29.7219C14.562 29.9415 14.7401 30.1195 14.9596 30.1195C15.1792 30.1195 15.3573 29.9415 15.3573 29.7219V21.3716C15.3573 21.152 15.1792 20.974 14.9596 20.974C14.7401 20.974 14.562 21.152 14.562 21.3716Z" fill="black"/>
<path d="M16.55 21.3716V29.7219C16.55 29.9415 16.7281 30.1195 16.9477 30.1195C17.1673 30.1195 17.3453 29.9415 17.3453 29.7219V21.3716C17.3453 21.152 17.1673 20.974 16.9477 20.974C16.7281 20.974 16.55 21.152 16.55 21.3716Z" fill="black"/>
</svg>
