<svg width="33" height="33" viewBox="0 0 33 33" fill="none" xmlns="http://www.w3.org/2000/svg">
<circle cx="16.2902" cy="16.2902" r="16.2902" fill="#FFCC00"/>
<path d="M6.98828 15.3542H24.9726L24.026 25.1352H8.25034L6.98828 15.3542Z" fill="#878786"/>
<path d="M25.0021 12.4702H17.972C17.8032 12.4702 17.6664 12.6071 17.6664 12.7759C17.6664 12.9447 17.8032 13.0815 17.972 13.0815H25.0021C25.1706 13.0815 25.3077 13.2186 25.3077 13.3872V14.9154H23.1681C22.9993 14.9154 22.7639 15.0523 22.7639 15.2211C22.7639 15.3899 22.9993 15.5268 23.1681 15.5268H24.7863L24.147 24.4345C24.1242 24.7527 23.8564 25.002 23.5373 25.002H8.73895C8.41985 25.002 8.15206 24.7527 8.12921 24.4345L7.48989 15.5268H23.1681C23.3369 15.5268 24.566 15.3899 24.566 15.2211C24.566 15.0523 23.3369 14.9154 23.1681 14.9154H6.96849V13.3872C6.96849 13.2186 7.10561 13.0815 7.27414 13.0815H14.3042C14.473 13.0815 14.6099 12.9447 14.6099 12.7759C14.6099 12.6071 14.473 12.4702 14.3042 12.4702H7.27414C6.76855 12.4702 6.35718 12.8816 6.35718 13.3872V14.9154C6.35718 15.2212 6.58302 15.4745 6.87648 15.5191L7.5195 24.4782C7.56516 25.1147 8.10082 25.6133 8.73895 25.6133H23.5372C24.1754 25.6133 24.7111 25.1147 24.7567 24.4782L25.3997 15.5191C25.6932 15.4745 25.9191 15.2212 25.9191 14.9154V13.3872C25.9191 12.8816 25.5077 12.4702 25.0021 12.4702Z" fill="black"/>
<path d="M16.1382 14.3042C16.6437 14.3042 17.0551 13.8928 17.0551 13.3872V7.27414C17.0551 6.76855 16.6437 6.35718 16.1382 6.35718C15.6326 6.35718 15.2212 6.76855 15.2212 7.27414V13.3872C15.2212 13.8928 15.6326 14.3042 16.1382 14.3042ZM15.8325 7.27414C15.8325 7.10561 15.9696 6.96849 16.1382 6.96849C16.3067 6.96849 16.4438 7.10561 16.4438 7.27414V13.3872C16.4438 13.5558 16.3067 13.6929 16.1382 13.6929C15.9696 13.6929 15.8325 13.5558 15.8325 13.3872V7.27414Z" fill="black"/>
<path d="M15.8325 17.055V23.4738C15.8325 23.6426 15.9694 23.7794 16.1382 23.7794C16.307 23.7794 16.4438 23.6426 16.4438 23.4738V17.055C16.4438 16.8862 16.307 16.7494 16.1382 16.7494C15.9694 16.7494 15.8325 16.8862 15.8325 17.055Z" fill="black"/>
<path d="M14.3042 17.055V23.4738C14.3042 23.6426 14.4411 23.7794 14.6099 23.7794C14.7787 23.7794 14.9155 23.6426 14.9155 23.4738V17.055C14.9155 16.8862 14.7787 16.7494 14.6099 16.7494C14.4411 16.7494 14.3042 16.8862 14.3042 17.055Z" fill="black"/>
<path d="M18.8889 17.055V23.4738C18.8889 23.6426 19.0258 23.7794 19.1946 23.7794C19.3634 23.7794 19.5002 23.6426 19.5002 23.4738V17.055C19.5002 16.8862 19.3634 16.7494 19.1946 16.7494C19.0258 16.7494 18.8889 16.8862 18.8889 17.055Z" fill="black"/>
<path d="M17.3608 17.055V23.4738C17.3608 23.6426 17.4977 23.7794 17.6665 23.7794C17.8353 23.7794 17.9721 23.6426 17.9721 23.4738V17.055C17.9721 16.8862 17.8353 16.7494 17.6665 16.7494C17.4977 16.7494 17.3608 16.8862 17.3608 17.055Z" fill="black"/>
<path d="M20.4172 17.055V23.4738C20.4172 23.6426 20.5541 23.7794 20.7229 23.7794C20.8917 23.7794 21.0285 23.6426 21.0285 23.4738V17.055C21.0285 16.8862 20.8917 16.7494 20.7229 16.7494C20.5541 16.7494 20.4172 16.8862 20.4172 17.055Z" fill="black"/>
<path d="M21.9456 17.055V23.4738C21.9456 23.6426 22.0824 23.7794 22.2512 23.7794C22.42 23.7794 22.5569 23.6426 22.5569 23.4738V17.055C22.5569 16.8862 22.42 16.7494 22.2512 16.7494C22.0824 16.7494 21.9456 16.8862 21.9456 17.055Z" fill="black"/>
<path d="M9.71948 17.055V23.4738C9.71948 23.6426 9.85634 23.7794 10.0251 23.7794C10.1939 23.7794 10.3308 23.6426 10.3308 23.4738V17.055C10.3308 16.8862 10.1939 16.7494 10.0251 16.7494C9.85634 16.7494 9.71948 16.8862 9.71948 17.055Z" fill="black"/>
<path d="M11.2476 17.055V23.4738C11.2476 23.6426 11.3844 23.7794 11.5532 23.7794C11.722 23.7794 11.8589 23.6426 11.8589 23.4738V17.055C11.8589 16.8862 11.722 16.7494 11.5532 16.7494C11.3844 16.7494 11.2476 16.8862 11.2476 17.055Z" fill="black"/>
<path d="M12.7759 17.055V23.4738C12.7759 23.6426 12.9127 23.7794 13.0815 23.7794C13.2503 23.7794 13.3872 23.6426 13.3872 23.4738V17.055C13.3872 16.8862 13.2503 16.7494 13.0815 16.7494C12.9127 16.7494 12.7759 16.8862 12.7759 17.055Z" fill="black"/>
</svg>
