<svg width="53" height="53" viewBox="0 0 53 53" fill="none" xmlns="http://www.w3.org/2000/svg">
<circle cx="26.5" cy="26.5" r="26.5" fill="#FFCC00"/>
<g clip-path="url(#clip0_478_1811)">
<path d="M39.3374 14.342C38.2636 13.2682 36.8359 12.6768 35.3172 12.6768C33.7986 12.6768 32.3709 13.2682 31.297 14.342L13.382 32.257C11.5393 34.0996 11.5393 37.0979 13.382 38.9406C14.3034 39.8619 15.5136 40.3226 16.7237 40.3226C17.9339 40.3226 19.1442 39.8619 20.0656 38.9406L35.87 23.1362C37.3108 21.6953 37.3108 19.3508 35.87 17.9099C35.172 17.2119 34.2439 16.8275 33.2568 16.8275C32.2697 16.8275 31.3417 17.2119 30.6436 17.9099L20.6937 27.86L21.3973 28.5635L31.3474 18.6135C31.8574 18.1034 32.5355 17.8225 33.2569 17.8225C33.9782 17.8225 34.6564 18.1034 35.1665 18.6135C36.2194 19.6664 36.2194 21.3797 35.1665 22.4327L19.3621 38.2371C17.9073 39.6917 15.5403 39.6918 14.0856 38.2371C12.6307 36.7823 12.6307 34.4153 14.0856 32.9605L32.0006 15.0455C32.8865 14.1596 34.0643 13.6717 35.3172 13.6717C36.5701 13.6717 37.7479 14.1596 38.6339 15.0455C40.4627 16.8743 40.4627 19.8501 38.6339 21.6788L26.5732 33.7395L27.2768 34.443L39.3374 22.3823C41.5542 20.1657 41.5542 16.5588 39.3374 14.342Z" fill="black"/>
</g>
<defs>
<clipPath id="clip0_478_1811">
<rect width="29" height="29" fill="white" transform="translate(12 12)"/>
</clipPath>
</defs>
</svg>
