<svg width="53" height="53" viewBox="0 0 53 53" fill="none" xmlns="http://www.w3.org/2000/svg">
<circle cx="26.5" cy="26.5" r="26.5" fill="#FFCC00"/>
<g clip-path="url(#clip0_287_910)">
<path d="M15.9375 36.0101L21.7056 30.3726C25.6553 26.5124 31.9866 26.5849 35.8468 30.5346L36.6599 31.3665L23.7402 43.9936L15.9375 36.0101Z" fill="white"/>
<path d="M43.9539 19.9009C43.9539 15.5929 40.4491 12.0882 36.1412 12.0882C35.039 12.0882 33.9462 12.3227 32.9463 12.7703C31.1791 10.3721 28.4012 8.95776 25.4004 8.95776C21.0848 8.95776 17.366 11.8843 16.3166 16.0069C16.0998 15.9825 15.8823 15.9704 15.6656 15.9704C12.428 15.9704 9.79395 18.6043 9.79395 21.8419C9.79395 25.0796 12.428 27.7135 15.6656 27.7135H22.934L15.1199 35.5276C14.8555 35.792 14.8555 36.2207 15.1199 36.485L23.2252 44.5903C23.3522 44.7173 23.5243 44.7887 23.7039 44.7887C23.8836 44.7887 24.0556 44.7173 24.1827 44.5903L37.0958 31.6773C37.3602 31.4129 37.3602 30.9842 37.0958 30.7199L34.0895 27.7135H36.1412C40.4491 27.7135 43.9539 24.2088 43.9539 19.9009ZM11.1488 21.9292C11.1008 19.3984 13.1455 17.3243 15.6656 17.3243C16.0065 17.3243 16.3505 17.3638 16.6879 17.442C16.6892 17.4423 16.6905 17.4424 16.6918 17.4427C16.6933 17.443 16.6946 17.4436 16.6961 17.4438C16.7506 17.4562 18.0395 17.7628 18.5694 19.1405C18.6729 19.4095 18.9294 19.5747 19.2015 19.5747C19.3033 19.5747 19.4074 19.5516 19.5064 19.502C19.823 19.3435 19.9516 18.956 19.8224 18.6265C19.2991 17.2931 18.2943 16.6426 17.6298 16.3452C18.5267 12.8172 21.7071 10.3118 25.4004 10.3118C25.932 10.3118 26.4554 10.3637 26.9647 10.4643C30.2509 11.113 32.7639 13.8192 33.2176 17.1381C33.2269 17.2055 33.2349 17.2729 33.2416 17.3401C33.2765 17.6893 33.5708 17.9498 33.9144 17.9498C33.9369 17.9498 33.9597 17.9487 33.9826 17.9464C34.3547 17.9092 34.6261 17.5774 34.5889 17.2053C34.462 15.9366 33.9664 14.68 33.6314 13.9493C34.4216 13.6166 35.2776 13.4422 36.1412 13.4422C39.7236 13.4422 42.6343 16.374 42.5995 19.9645C42.565 23.5201 39.6146 26.3595 36.0588 26.3595H15.7414C13.2676 26.3595 11.1957 24.4025 11.1488 21.9292ZM22.9825 36.7276L23.0169 42.4673L17.2429 36.6933L22.9825 36.7276ZM24.3366 36.7356L28.5853 36.761C28.5867 36.761 28.588 36.761 28.5893 36.761C28.7688 36.761 28.941 36.6897 29.0681 36.5627C29.196 36.4347 29.2674 36.2609 29.2664 36.0799L29.241 31.831L34.9927 31.8654L24.3711 42.4871L24.3366 36.7356ZM27.8622 27.7135L27.9083 35.4029L17.2234 35.3391L24.8489 27.7136H27.8622V27.7135ZM34.9722 30.5113L29.2329 30.477L29.2164 27.7136H32.1746L34.9722 30.5113Z" fill="black"/>
</g>
<defs>
<clipPath id="clip0_287_910">
<rect width="35.831" height="35.831" fill="white" transform="translate(8.95801 8.95776)"/>
</clipPath>
</defs>
</svg>
