<svg width="71" height="71" viewBox="0 0 71 71" fill="none" xmlns="http://www.w3.org/2000/svg">
<circle cx="35.5" cy="35.5" r="35.5" fill="white"/>
<path d="M21.3501 48.24L31.5061 38.314C35.4558 34.4538 41.787 34.5263 45.6473 38.476L49.1103 42.0192L31.8028 58.9348L21.3501 48.24Z" fill="#878786"/>
<path d="M58.8807 26.6596C58.8807 20.8886 54.1857 16.1936 48.4146 16.1936C46.9381 16.1936 45.4742 16.5077 44.1347 17.1074C41.7673 13.8947 38.046 12 34.026 12C28.2447 12 23.263 15.9205 21.8571 21.4432C21.5668 21.4106 21.2753 21.3942 20.9851 21.3942C16.6479 21.3942 13.1193 24.9228 13.1193 29.2599C13.1193 33.5971 16.6479 37.1257 20.9851 37.1257H30.7219L20.254 47.5936C19.8998 47.9478 19.8998 48.5221 20.254 48.8761L31.112 59.7342C31.2822 59.9043 31.5128 59.9999 31.7534 59.9999C31.9941 59.9999 32.2246 59.9043 32.3948 59.7342L49.6935 42.4356C50.0476 42.0814 50.0476 41.5071 49.6935 41.153L45.6661 37.1257H48.4146C54.1857 37.1257 58.8807 32.4307 58.8807 26.6596ZM14.9343 29.3769C14.8699 25.9866 17.609 23.208 20.9851 23.208C21.4417 23.208 21.9026 23.261 22.3546 23.3657C22.3563 23.3661 22.3581 23.3662 22.3598 23.3667C22.3617 23.367 22.3635 23.3678 22.3655 23.3681C22.4385 23.3847 24.1652 23.7955 24.8751 25.6411C25.0137 26.0014 25.3573 26.2227 25.7218 26.2227C25.8582 26.2227 25.9976 26.1918 26.1303 26.1253C26.5544 25.9129 26.7267 25.3939 26.5535 24.9524C25.8525 23.1662 24.5065 22.2948 23.6163 21.8963C24.8179 17.1702 29.0784 13.8139 34.026 13.8139C34.7381 13.8139 35.4393 13.8834 36.1216 14.0182C40.5239 14.8873 43.8904 18.5125 44.4982 22.9585C44.5105 23.0489 44.5213 23.1391 44.5302 23.2292C44.577 23.6969 44.9712 24.0459 45.4316 24.0459C45.4617 24.0459 45.4923 24.0445 45.5229 24.0413C46.0214 23.9915 46.385 23.5471 46.3352 23.0486C46.1652 21.349 45.5013 19.6657 45.0525 18.6868C46.111 18.2411 47.2577 18.0074 48.4146 18.0074C53.2138 18.0074 57.1129 21.935 57.0663 26.7449C57.0201 31.5081 53.0677 35.3117 48.3042 35.3117H21.0866C17.7727 35.3117 14.9971 32.6902 14.9343 29.3769ZM30.787 49.2011L30.833 56.8901L23.0981 49.1551L30.787 49.2011ZM32.601 49.2118L38.2926 49.2458C38.2945 49.2458 38.2962 49.2458 38.298 49.2458C38.5384 49.2458 38.7691 49.1503 38.9394 48.9801C39.1108 48.8088 39.2064 48.5759 39.205 48.3334L39.171 42.6415L46.8761 42.6876L32.6472 56.9166L32.601 49.2118ZM37.3239 37.1257L37.3856 47.4265L23.0719 47.341L33.2873 37.1258H37.3239V37.1257ZM46.8486 40.8735L39.1601 40.8276L39.138 37.1258H43.1009L46.8486 40.8735Z" fill="black"/>
</svg>
