<svg width="33" height="33" viewBox="0 0 33 33" fill="none" xmlns="http://www.w3.org/2000/svg">
<circle cx="16.5" cy="16.5" r="16.5" fill="#FFCC00"/>
<g clip-path="url(#clip0_41_214)">
<path d="M16.5 20.001C18.4335 20.001 20.001 18.4335 20.001 16.5C20.001 14.5665 18.4335 12.999 16.5 12.999C14.5665 12.999 12.999 14.5665 12.999 16.5C12.999 18.4335 14.5665 20.001 16.5 20.001Z" fill="#878786"/>
<path d="M26.958 16.2939C25.171 12.0924 21.0659 9.37744 16.5 9.37744C11.9341 9.37744 7.82905 12.0923 6.04196 16.2939C5.98601 16.4254 5.98601 16.574 6.04196 16.7055C7.82893 20.9075 11.934 23.6227 16.5 23.6227C21.0661 23.6227 25.1712 20.9075 26.958 16.7055C27.014 16.574 27.014 16.4254 26.958 16.2939ZM16.5 22.5713C12.4315 22.5713 8.76622 20.1956 7.09959 16.4998C8.76626 12.8043 12.4316 10.4289 16.5 10.4289C20.5685 10.4289 24.2338 12.8043 25.9004 16.4997C24.2338 20.1955 20.5685 22.5713 16.5 22.5713Z" fill="black"/>
<path d="M16.5001 12.4734C14.2797 12.4734 12.4734 14.2798 12.4734 16.5001C12.4734 18.7204 14.2798 20.5267 16.5001 20.5267C18.7204 20.5267 20.5267 18.7204 20.5267 16.5001C20.5267 14.2797 18.7204 12.4734 16.5001 12.4734ZM16.5001 19.4754C14.8595 19.4754 13.5248 18.1407 13.5248 16.5001C13.5248 14.8596 14.8595 13.5249 16.5001 13.5249C18.1406 13.5249 19.4753 14.8596 19.4753 16.5001C19.4753 18.1407 18.1406 19.4754 16.5001 19.4754Z" fill="black"/>
<path d="M16.4999 14.3622C15.3212 14.3622 14.3621 15.3212 14.3621 16.5C14.3621 16.7903 14.5974 17.0257 14.8878 17.0257C15.1781 17.0257 15.4135 16.7903 15.4135 16.5C15.4135 15.901 15.9008 15.4136 16.4999 15.4136C16.7903 15.4136 17.0256 15.1782 17.0256 14.8879C17.0256 14.5975 16.7902 14.3622 16.4999 14.3622Z" fill="black"/>
</g>
<defs>
<clipPath id="clip0_41_214">
<rect width="21" height="21" fill="white" transform="translate(6 6)"/>
</clipPath>
</defs>
</svg>
