<svg width="71" height="71" viewBox="0 0 71 71" fill="none" xmlns="http://www.w3.org/2000/svg">
<circle cx="35.5" cy="35.5" r="35.5" fill="white"/>
<g clip-path="url(#clip0_47_393)">
<path d="M55.4547 53.8665L47.2439 57.2478L43.589 55.0963C33.0614 48.904 22.1479 37.9924 15.9555 27.4647L13.8059 23.8098L17.1871 15.599L20.8574 13.8599L28.1996 24.8723L25.6451 28.4664L23.9211 30.8898C25.5918 33.8338 28.1805 37.0593 31.0866 39.9653C33.9927 42.8734 37.22 45.462 40.1641 47.1327L42.5875 45.4088L46.1816 42.8543L57.194 50.1946L55.4547 53.8665Z" fill="#878786"/>
<path d="M37.1678 26.8077C41.4969 26.8077 45.0188 30.3297 45.0188 34.6588C45.0188 35.1039 45.3796 35.4647 45.8248 35.4647C46.2701 35.4647 46.6308 35.1039 46.6308 34.6588C46.6308 29.4409 42.3857 25.1958 37.1678 25.1958C36.7226 25.1958 36.3618 25.5567 36.3618 26.0018C36.3618 26.4468 36.7227 26.8077 37.1678 26.8077Z" fill="black"/>
<path d="M37.1678 20.3164C45.0763 20.3164 51.5103 26.7503 51.5103 34.6588C51.5103 35.1039 51.871 35.4648 52.3163 35.4648C52.7615 35.4648 53.1222 35.1039 53.1222 34.6588C53.1222 25.8617 45.9651 18.7046 37.1679 18.7046C36.7227 18.7046 36.3619 19.0655 36.3619 19.5105C36.3619 19.9555 36.7227 20.3164 37.1678 20.3164Z" fill="black"/>
<path d="M20.8573 13.8237L28.1998 24.836L25.6456 28.4292L25.6242 28.4593L17.1877 15.5623L20.8573 13.8237Z" fill="white"/>
<path d="M57.1938 50.158L55.4552 53.8298L42.5582 45.3923L42.5872 45.3719L46.1817 42.8176L57.1938 50.158Z" fill="white"/>
<path d="M57.641 49.4698L46.6286 42.1296C46.3505 41.9443 45.9871 41.9497 45.7147 42.1432L40.12 46.121C37.4399 44.5305 34.4537 42.1401 31.6566 39.3413C28.857 36.5417 26.4673 33.5562 24.8788 30.8798L28.8566 25.2849C29.0502 25.0126 29.0556 24.6491 28.8702 24.3711L21.5279 13.3586C21.3062 13.0259 20.8736 12.9063 20.5122 13.0774L16.842 14.8166C16.6609 14.9024 16.5182 15.0526 16.442 15.238L13.0608 23.4489C12.9647 23.6822 12.9833 23.947 13.1113 24.1643L15.2609 27.8192C15.6329 28.4516 16.0279 29.0957 16.4352 29.7335C16.6747 30.1087 19.1246 33.2394 19.5 33C19.8751 32.7605 18.0333 29.2413 17.7937 28.8662C17.3971 28.2449 17.0124 27.6176 16.6503 27.0021L14.7037 23.6924L17.3501 17.2658L24.6488 28.4216L23.2645 30.3684C23.083 30.6236 23.0656 30.9609 23.2203 31.2333C24.8712 34.1425 27.4626 37.4267 30.5166 40.4808C33.5678 43.5339 36.8528 46.126 39.7664 47.7794C40.0388 47.934 40.3762 47.9166 40.6313 47.7351L42.5782 46.3508L44.7204 47.7524C44.8565 47.8415 46.8491 49.2443 47.0005 49.2443C47.2632 49.2443 48.3453 49.7364 48.5 49.5C48.7437 49.1275 45.9754 46.6472 45.603 46.4036L43.989 45.3478L46.1962 43.7785L56.1676 50.4248L55.1222 52.6318L45.603 46.4036C45.2304 46.1598 45.2436 46.6274 45 47C44.7563 47.3725 46.628 49.0006 47.0005 49.2443L53.7337 53.6497L47.3075 56.2961L43.9976 54.3476C39.6501 51.7904 35.0905 48.3197 30.8116 44.3106C26.5697 40.336 20.9072 33.27 17.7937 28.8662C17.5368 28.5029 17.3639 28.7429 17 29C16.6366 29.2569 16.1781 29.3701 16.4352 29.7335C22.9833 38.9953 34.1194 50.4075 43.1803 55.7369L46.8352 57.8883C46.9607 57.9623 47.102 57.9998 47.244 57.9998C47.348 57.9998 47.4523 57.9797 47.5509 57.9391L55.7617 54.5578C55.9471 54.4815 56.0973 54.3387 56.1832 54.1576L57.9224 50.4856C58.0935 50.1239 57.9737 49.6917 57.641 49.4698ZM18.3678 15.8772L20.5732 14.8322L27.2212 24.8035L25.6519 27.0107L18.3678 15.8772Z" fill="black"/>
</g>
<defs>
<clipPath id="clip0_47_393">
<rect width="45" height="45" fill="white" transform="translate(13 13)"/>
</clipPath>
</defs>
</svg>
