<svg width="53" height="53" viewBox="0 0 53 53" fill="none" xmlns="http://www.w3.org/2000/svg">
<circle cx="26.5" cy="26.5" r="26.5" fill="#FFCC00"/>
<g clip-path="url(#clip0_287_917)">
<path d="M41.3956 40.2101L35.2664 42.7341L32.5381 41.1281C24.6795 36.5056 16.5328 28.3604 11.9103 20.5017L10.3057 17.7733L12.8297 11.6441L15.5694 10.3459L21.0502 18.5665L19.1434 21.2494L17.8565 23.0584C19.1035 25.2561 21.036 27.6639 23.2053 29.8331C25.3747 32.0039 27.7838 33.9363 29.9815 35.1834L31.7905 33.8965L34.4734 31.9897L42.694 37.469L41.3956 40.2101Z" fill="white"/>
<path d="M27.7452 20.0114C30.9768 20.0114 33.6058 22.6405 33.6058 25.872C33.6058 26.2043 33.8751 26.4737 34.2075 26.4737C34.5398 26.4737 34.8091 26.2043 34.8091 25.872C34.8091 21.977 31.6402 18.8081 27.7452 18.8081C27.4129 18.8081 27.1436 19.0775 27.1436 19.4097C27.1436 19.742 27.4129 20.0114 27.7452 20.0114Z" fill="black"/>
<path d="M27.7451 15.1658C33.6486 15.1658 38.4515 19.9686 38.4515 25.8721C38.4515 26.2044 38.7207 26.4738 39.0531 26.4738C39.3855 26.4738 39.6547 26.2044 39.6547 25.8721C39.6547 19.3053 34.3121 13.9626 27.7452 13.9626C27.4129 13.9626 27.1436 14.232 27.1436 14.5643C27.1436 14.8965 27.4129 15.1658 27.7451 15.1658Z" fill="black"/>
<path d="M15.5694 10.3191L21.0503 18.5395L19.1437 21.2218L19.1277 21.2442L12.8301 11.6169L15.5694 10.3191Z" fill="#FFCC00"/>
<path d="M42.6937 37.4418L41.3959 40.1827L31.7686 33.8843L31.7902 33.8691L34.4734 31.9624L42.6937 37.4418Z" fill="#FFCC00"/>
<path d="M43.0277 36.9283L34.8072 31.4489C34.5996 31.3106 34.3283 31.3146 34.125 31.4591L29.9486 34.4284C27.948 33.2411 25.7188 31.4568 23.6308 29.3675C21.541 27.2777 19.7571 25.0491 18.5714 23.0512L21.5407 18.8747C21.6852 18.6714 21.6892 18.4001 21.5509 18.1925L16.07 9.97201C15.9045 9.72361 15.5816 9.63432 15.3118 9.76206L12.5721 11.0603C12.4369 11.1244 12.3304 11.2365 12.2734 11.3749L9.74949 17.5042C9.67772 17.6783 9.69163 17.876 9.78722 18.0382L11.3918 20.7665C11.6695 21.2386 11.9644 21.7194 12.2684 22.1955C12.4472 22.4756 14.276 24.8126 14.5562 24.6339C14.8362 24.4551 13.4614 21.8281 13.2825 21.5481C12.9864 21.0843 12.6992 20.616 12.4289 20.1565L10.9758 17.6859L12.9514 12.8886L18.3997 21.2162L17.3664 22.6694C17.2309 22.8599 17.2179 23.1117 17.3334 23.315C18.5657 25.4867 20.5001 27.9383 22.7799 30.2181C25.0575 32.4972 27.5097 34.4321 29.6847 35.6663C29.888 35.7817 30.1399 35.7688 30.3303 35.6333L31.7836 34.5999L33.3827 35.6462C33.4843 35.7127 34.9717 36.7599 35.0848 36.7599C35.2809 36.7599 36.0886 37.1273 36.2041 36.9508C36.386 36.6727 34.3196 34.8212 34.0415 34.6394L32.8368 33.8512L34.4844 32.6798L41.9278 37.6411L41.1474 39.2886L34.0415 34.6394C33.7634 34.4574 33.7733 34.8065 33.5914 35.0846C33.4095 35.3626 34.8067 36.578 35.0848 36.7599L40.1109 40.0484L35.3139 42.0239L32.8432 40.5694C29.5979 38.6605 26.1942 36.0697 23.0001 33.077C19.8336 30.11 15.6067 24.8354 13.2825 21.5481C13.0907 21.2769 12.9616 21.456 12.69 21.6479C12.4187 21.8397 12.0765 21.9242 12.2684 22.1955C17.1564 29.1092 25.4693 37.6282 32.233 41.6065L34.9613 43.2125C35.055 43.2677 35.1605 43.2957 35.2666 43.2957C35.3442 43.2957 35.422 43.2807 35.4956 43.2503L41.6248 40.7263C41.7632 40.6694 41.8753 40.5628 41.9394 40.4275L43.2377 37.6865C43.3654 37.4165 43.276 37.0939 43.0277 36.9283ZM13.7111 11.8521L15.3573 11.072L20.3199 18.5153L19.1485 20.163L13.7111 11.8521Z" fill="black"/>
</g>
<defs>
<clipPath id="clip0_287_917">
<rect width="33.5915" height="33.5915" fill="white" transform="translate(9.7041 9.70422)"/>
</clipPath>
</defs>
</svg>
