<svg width="71" height="71" viewBox="0 0 71 71" fill="none" xmlns="http://www.w3.org/2000/svg">
<circle cx="35.5" cy="35.5" r="35.5" fill="white"/>
<g clip-path="url(#clip0_42_362)">
<path d="M40.2659 45.0592L32.1773 54.2508C29.5301 47.6329 32.1773 41.0149 32.1773 41.0149L22.618 29.2496C22.618 29.2496 19.0149 29.6173 16.7354 27.7789L27.8696 17.6956C27.8696 17.6956 29.2321 19.0496 28.7174 22.3586L40.587 32.9564C40.587 32.9564 46.1717 29.2408 53.3044 32.1086L40.2659 45.0592Z" fill="#878786"/>
<path d="M31.736 54.9861C31.6625 54.9861 31.6625 54.9861 31.589 54.9861C31.3684 54.9126 31.1478 54.7655 31.0743 54.5449C28.7212 48.5888 30.7066 42.7061 31.2949 41.0149L21.9562 29.9849C20.9267 30.0584 18.353 30.0584 16.2941 28.4407C16.1471 28.4407 16 28.2201 16 27.9995C16 27.7789 16.0735 27.5583 16.2206 27.4113L27.3976 16.2343C27.5447 16.0872 27.7653 16.0137 27.9859 16.0137C28.2064 16.0137 28.3535 16.1607 28.5006 16.3078C28.5741 16.3813 30.4124 18.7344 30.0448 22.0434L41.0012 31.3821C42.6189 30.6468 48.2075 28.6614 54.5313 31.1615C54.7519 31.235 54.8989 31.4556 54.9724 31.6762C55.046 31.8968 54.9724 32.1909 54.7519 32.338L32.3243 54.7655C32.1772 54.9126 31.9566 54.9861 31.736 54.9861ZM22.2503 28.5143C22.4709 28.5143 22.6915 28.5878 22.8385 28.8084L32.7655 40.4266C32.9125 40.6472 32.986 40.9413 32.9125 41.2355C32.9125 41.309 30.3389 47.0446 32.1772 52.9272L42.0306 43.0738L52.9135 32.1909C46.6632 30.2055 41.2953 32.9262 41.2218 32.9262C40.9277 33.0733 40.6336 32.9997 40.413 32.8527L28.7948 22.9258C28.5742 22.7052 28.5006 22.4846 28.5006 22.1905C28.7948 20.2786 28.2065 18.7344 27.7653 17.8521L17.9119 27.8525C19.8237 28.882 22.1768 28.5878 22.1768 28.5878C22.1768 28.5143 22.2503 28.5143 22.2503 28.5143Z" fill="black"/>
<path d="M53.5018 54.2508C53.2812 54.2508 53.1342 54.1773 52.9871 54.0303L42.4719 43.515C42.1778 43.2209 42.1778 42.7797 42.4719 42.4855C42.7661 42.1913 43.2072 42.1914 43.5014 42.4855L54.0166 53.0007C54.3107 53.2948 54.3107 53.736 54.0166 54.0302C53.8695 54.1773 53.7224 54.2508 53.5018 54.2508Z" fill="black"/>
</g>
<defs>
<clipPath id="clip0_42_362">
<rect width="39" height="39" fill="white" transform="translate(16 16)"/>
</clipPath>
</defs>
</svg>
