<svg width="53" height="53" viewBox="0 0 53 53" fill="none" xmlns="http://www.w3.org/2000/svg">
<circle cx="26.5" cy="26.5" r="26.5" fill="#FFCC00"/>
<g clip-path="url(#clip0_287_899)">
<path d="M30.0572 33.6357L24.0193 40.4971C22.0432 35.5569 24.0193 30.6167 24.0193 30.6167L16.8834 21.8342C16.8834 21.8342 14.1938 22.1087 12.4922 20.7364L20.8037 13.2094C20.8037 13.2094 21.8208 14.2201 21.4365 16.6902L30.2969 24.6013C30.2969 24.6013 34.4658 21.8276 39.7902 23.9684L30.0572 33.6357Z" fill="white"/>
<path d="M23.69 41.046C23.6351 41.046 23.6351 41.046 23.5802 41.046C23.4155 40.9911 23.2509 40.8813 23.196 40.7166C21.4395 36.2705 22.9215 31.8792 23.3606 30.6167L16.3895 22.3831C15.621 22.438 13.6999 22.438 12.1629 21.2304C12.0531 21.2304 11.9434 21.0657 11.9434 20.901C11.9434 20.7364 11.9982 20.5717 12.108 20.4619L20.4514 12.1185C20.5612 12.0087 20.7259 11.9539 20.8905 11.9539C21.0552 11.9539 21.165 12.0636 21.2748 12.1734C21.3297 12.2283 22.7019 13.9848 22.4275 16.4549L30.6062 23.426C31.8138 22.8771 35.9855 21.3951 40.7061 23.2614C40.8708 23.3163 40.9806 23.4809 41.0355 23.6456C41.0904 23.8103 41.0355 24.0298 40.8708 24.1396L24.1291 40.8813C24.0193 40.9911 23.8546 41.046 23.69 41.046ZM16.6091 21.2853C16.7737 21.2853 16.9384 21.3402 17.0482 21.5049L24.4584 30.1776C24.5682 30.3423 24.6231 30.5618 24.5682 30.7814C24.5682 30.8363 22.647 35.1178 24.0193 39.509L31.3747 32.1537L39.4985 24.0298C34.8328 22.5478 30.8258 24.5787 30.7709 24.5787C30.5513 24.6885 30.3318 24.6336 30.1671 24.5238L21.4944 17.1136C21.3297 16.9489 21.2748 16.7843 21.2748 16.5647C21.4944 15.1376 21.0553 13.9849 20.7259 13.3262L13.3705 20.7913C14.7977 21.5598 16.5542 21.3402 16.5542 21.3402C16.5542 21.2853 16.6091 21.2853 16.6091 21.2853Z" fill="black"/>
<path d="M39.9373 40.4971C39.7726 40.4971 39.6629 40.4422 39.5531 40.3324L31.7037 32.483C31.4842 32.2634 31.4842 31.9341 31.7037 31.7145C31.9233 31.4949 32.2526 31.4949 32.4722 31.7145L40.3216 39.5638C40.5411 39.7834 40.5411 40.1127 40.3216 40.3323C40.2118 40.4422 40.102 40.4971 39.9373 40.4971Z" fill="black"/>
</g>
<defs>
<clipPath id="clip0_287_899">
<rect width="29.1127" height="29.1127" fill="white" transform="translate(11.9434 11.9436)"/>
</clipPath>
</defs>
</svg>
