<svg width="41" height="41" viewBox="0 0 41 41" fill="none" xmlns="http://www.w3.org/2000/svg">
<circle cx="20.5" cy="20.5" r="20.5" fill="#FFCC00"/>
<g clip-path="url(#clip0_243_3)">
<path d="M30.1954 31.6329L31.6306 30.1978C31.82 30.0083 31.82 29.7052 31.6306 29.5158L24.5638 22.449L22.4467 24.5662L29.5134 31.6329C29.7028 31.8224 30.006 31.8224 30.1954 31.6329Z" fill="#878786"/>
<path d="M16.7393 12.1758C14.2196 12.1758 12.1687 14.2266 12.1687 16.7464C12.1687 16.9832 12.3629 17.1774 12.5997 17.1774C12.8365 17.1774 13.0307 16.9832 13.0307 16.7464C13.0307 14.7003 14.6932 13.0378 16.7393 13.0378C16.9762 13.0378 17.1703 12.8436 17.1703 12.6068C17.1703 12.3652 16.9762 12.1758 16.7393 12.1758Z" fill="black"/>
<path d="M24.867 22.1463C24.7012 21.9805 24.4265 21.9805 24.2607 22.1463L23.5076 22.8994L22.5082 21.9C23.735 20.5312 24.4833 18.7218 24.4833 16.742C24.4833 12.4745 21.0115 9.00273 16.744 9.00273C12.4765 9.00273 9 12.4745 9 16.742C9 21.0095 12.4718 24.4813 16.7393 24.4813C18.7191 24.4813 20.5237 23.733 21.8972 22.5062L22.8966 23.5056L22.1435 24.2587C22.063 24.3392 22.0156 24.4482 22.0156 24.5618C22.0156 24.6755 22.063 24.7844 22.1435 24.865L28.8645 31.5859C29.1297 31.8512 29.4802 31.998 29.8544 31.998C30.2286 31.998 30.5791 31.8512 30.8443 31.5859L31.5879 30.8423C31.8532 30.5771 32 30.2266 32 29.8524C32 29.4782 31.8532 29.1277 31.5879 28.8625L24.867 22.1463ZM9.86203 16.742C9.86203 12.9482 12.9502 9.86002 16.744 9.86002C20.5379 9.86002 23.626 12.9482 23.626 16.742C23.626 20.5359 20.5379 23.624 16.744 23.624C12.9502 23.624 9.86203 20.5359 9.86203 16.742ZM30.9817 30.2408L30.2381 30.9844C30.1339 31.0886 30.0012 31.1454 29.8544 31.1454C29.7076 31.1454 29.575 31.0886 29.4708 30.9844L23.0529 24.5666L24.5638 23.0557L30.9817 29.4735C31.0859 29.5777 31.1427 29.7103 31.1427 29.8571C31.1427 30.004 31.0811 30.1413 30.9817 30.2408Z" fill="black"/>
</g>
<defs>
<clipPath id="clip0_243_3">
<rect width="23" height="23" fill="white" transform="translate(9 9)"/>
</clipPath>
</defs>
</svg>
